<svg width="16" height="16" viewBox="0 0 16 16" fill="none" xmlns="http://www.w3.org/2000/svg">
<path d="M3.83895 4.31359L8.0056 8.48024L12.1722 4.31359C12.2717 4.21417 12.3897 4.13531 12.5196 4.0815C12.6495 4.02769 12.7887 4 12.9293 4C13.0699 4 13.2092 4.02769 13.3391 4.0815C13.469 4.13531 13.587 4.21417 13.6864 4.31359C13.7858 4.41302 13.8647 4.53105 13.9185 4.66095C13.9723 4.79085 14 4.93007 14 5.07068C14 5.21128 13.9723 5.35051 13.9185 5.48041C13.8647 5.61031 13.7858 5.72834 13.6864 5.82776L8.75731 10.7569C8.65796 10.8564 8.53996 10.9354 8.41005 10.9893C8.28013 11.0432 8.14087 11.0709 8.00023 11.0709C7.85958 11.0709 7.72032 11.0432 7.59041 10.9893C7.4605 10.9354 7.34249 10.8564 7.24314 10.7569L2.31405 5.82776C2.2145 5.72841 2.13552 5.61041 2.08163 5.4805C2.02774 5.35058 2 5.21132 2 5.07068C2 4.93003 2.02774 4.79077 2.08163 4.66086C2.13552 4.53095 2.2145 4.41294 2.31405 4.31359C2.73286 3.90552 3.42014 3.89478 3.83895 4.31359V4.31359Z" fill="#3B3B3B"/>
</svg>
