<svg width="16" height="16" viewBox="0 0 16 16" fill="none" xmlns="http://www.w3.org/2000/svg">
<path d="M5.27998 5.02667C4.74665 4.8 4.51998 4.14 4.83998 3.66C5.48665 2.7 6.56665 2 7.99332 2C9.55998 2 10.6333 2.71333 11.18 3.60667C11.6467 4.37333 11.92 5.80667 11.2 6.87333C10.4 8.05333 9.63332 8.41333 9.21998 9.17333C9.11998 9.35333 9.05998 9.5 9.01998 9.8C8.95998 10.2867 8.55998 10.6667 8.06665 10.6667C7.48665 10.6667 7.01332 10.1667 7.07998 9.58667C7.11998 9.24667 7.19998 8.89333 7.38665 8.56C7.89998 7.63333 8.88665 7.08667 9.45998 6.26667C10.0666 5.40667 9.72665 3.8 8.00665 3.8C7.22665 3.8 6.71998 4.20667 6.40665 4.69333C6.17332 5.07333 5.68665 5.19333 5.27998 5.02667ZM9.33332 13.3333C9.33332 14.0667 8.73332 14.6667 7.99998 14.6667C7.26665 14.6667 6.66665 14.0667 6.66665 13.3333C6.66665 12.6 7.26665 12 7.99998 12C8.73332 12 9.33332 12.6 9.33332 13.3333Z" fill="#3B3B3B"/>
</svg>
