<svg width="20" height="20" viewBox="0 0 20 20" fill="none" xmlns="http://www.w3.org/2000/svg">
<path d="M12.3583 4.0251L10.5833 2.2501C10.0667 1.73343 9.16667 2.1001 9.16667 2.84176V3.39176C5.88334 3.8001 3.33334 6.6001 3.33334 10.0001C3.33334 13.0334 5.35834 15.5918 8.14167 16.4001C8.65834 16.5501 9.16667 16.1334 9.16667 15.6001V15.5751C9.16924 15.4009 9.11547 15.2305 9.01336 15.0894C8.91124 14.9482 8.76626 14.8438 8.6 14.7918C7.56125 14.4919 6.64825 13.8622 5.99883 12.9979C5.34941 12.1335 4.99882 11.0813 5 10.0001C5 7.5251 6.8 5.4751 9.16667 5.0751V6.3501C9.16667 7.09176 10.0583 7.45843 10.5833 6.94176L12.3583 5.20843C12.4375 5.13154 12.5004 5.03956 12.5433 4.93793C12.5863 4.83631 12.6084 4.7271 12.6084 4.61676C12.6084 4.50643 12.5863 4.39722 12.5433 4.2956C12.5004 4.19397 12.4375 4.10199 12.3583 4.0251V4.0251ZM16.3917 8.13343C16.2583 7.6751 16.075 7.23343 15.8417 6.80843C15.5833 6.33343 14.925 6.25843 14.5417 6.64176L14.5333 6.6501C14.275 6.90843 14.2167 7.3001 14.3917 7.61677C14.5583 7.9251 14.6917 8.2501 14.7917 8.58343C14.8917 8.93343 15.2167 9.16677 15.575 9.16677H15.5917C16.1333 9.16677 16.55 8.6501 16.3917 8.13343V8.13343ZM10.8333 15.5668V15.5834C10.8333 16.1251 11.35 16.5334 11.8667 16.3834C12.325 16.2501 12.7667 16.0668 13.1917 15.8334C13.6667 15.5751 13.7417 14.9168 13.3583 14.5334L13.3417 14.5168C13.2179 14.3912 13.0566 14.3094 12.8821 14.2838C12.7076 14.2582 12.5296 14.2903 12.375 14.3751C12.0667 14.5501 11.7417 14.6834 11.4083 14.7834C11.0667 14.8834 10.8333 15.2084 10.8333 15.5668V15.5668ZM14.5333 13.3584C14.9167 13.7418 15.575 13.6668 15.8333 13.1918C16.0667 12.7668 16.25 12.3251 16.3917 11.8668C16.5417 11.3501 16.1333 10.8334 15.5917 10.8334H15.575C15.2083 10.8334 14.8917 11.0668 14.7917 11.4168C14.6917 11.7501 14.5583 12.0751 14.3917 12.3918C14.2167 12.7084 14.2833 13.1084 14.5333 13.3584Z" fill="white"/>
</svg>
