<svg xmlns="http://www.w3.org/2000/svg" width="53.683" height="74.69" viewBox="0 0 53.683 74.69">
  <g id="Icon_ionic-ios-trash" data-name="Icon ionic-ios-trash" transform="translate(-8.297 -4.5)">
    <path id="Path_23" data-name="Path 23" d="M9.359,9l4.59,56.543a5.7,5.7,0,0,0,5.7,5.7H47.073a5.7,5.7,0,0,0,5.7-5.7L57.3,9ZM21.34,60.544l-1.3-45.32h3.6l1.342,45.32Zm13.674,0h-3.5V15.224h3.5Zm10.173,0H41.569l1.323-45.32h3.6Z" transform="translate(1.875 7.948)" fill="#fff"/>
    <path id="Path_24" data-name="Path 24" d="M56.145,9.946h-7L44.027,5.473A3.943,3.943,0,0,0,41.46,4.5h-12.6a4.005,4.005,0,0,0-2.606.973L21.134,9.946h-7C10.709,9.946,8.3,11.58,8.3,15H61.98C61.98,11.58,59.568,9.946,56.145,9.946Z" fill="#fff"/>
  </g>
</svg>
