<svg width="16" height="16" viewBox="0 0 16 16" fill="none" xmlns="http://www.w3.org/2000/svg">
<path d="M4.00002 1.33334H10C10.3536 1.33334 10.6928 1.47382 10.9428 1.72387C11.1929 1.97392 11.3334 2.31305 11.3334 2.66668V3.33334C11.3334 3.51015 11.2631 3.67972 11.1381 3.80475C11.0131 3.92977 10.8435 4.00001 10.6667 4.00001C10.4899 4.00001 10.3203 3.92977 10.1953 3.80475C10.0703 3.67972 10 3.51015 10 3.33334V2.66668H4.00002V13.3333H10V12.6667C10 12.4899 10.0703 12.3203 10.1953 12.1953C10.3203 12.0702 10.4899 12 10.6667 12C10.8435 12 11.0131 12.0702 11.1381 12.1953C11.2631 12.3203 11.3334 12.4899 11.3334 12.6667V13.3333C11.3334 13.687 11.1929 14.0261 10.9428 14.2762C10.6928 14.5262 10.3536 14.6667 10 14.6667H4.00002C3.6464 14.6667 3.30726 14.5262 3.05721 14.2762C2.80716 14.0261 2.66669 13.687 2.66669 13.3333V2.66668C2.66669 2.31305 2.80716 1.97392 3.05721 1.72387C3.30726 1.47382 3.6464 1.33334 4.00002 1.33334V1.33334Z" fill="#3B3B3B"/>
<path d="M11.1967 10.8633C11.4567 11.1233 11.8767 11.1233 12.1367 10.8633L14.5287 8.47133C14.6536 8.34631 14.7239 8.17677 14.7239 7.99999C14.7239 7.82322 14.6536 7.65368 14.5287 7.52866L12.1367 5.13666C12.0099 5.02212 11.8441 4.96065 11.6733 4.96496C11.5025 4.96928 11.3399 5.03903 11.2192 5.15982C11.0984 5.28061 11.0286 5.44318 11.0243 5.61395C11.02 5.78471 11.0815 5.9506 11.196 6.07733L12.4467 7.33333H6.66667C6.48986 7.33333 6.32029 7.40356 6.19526 7.52859C6.07024 7.65361 6 7.82318 6 7.99999C6 8.1768 6.07024 8.34637 6.19526 8.4714C6.32029 8.59642 6.48986 8.66666 6.66667 8.66666H12.4467L11.196 9.92266C11.0716 10.0476 11.0017 10.2168 11.0019 10.3931C11.002 10.5695 11.072 10.7386 11.1967 10.8633Z" fill="#3B3B3B"/>
</svg>
