<svg width="16" height="16" viewBox="0 0 16 16" fill="none" xmlns="http://www.w3.org/2000/svg">
<path d="M6.00002 1.33334H12C12.7334 1.33334 13.3334 1.93334 13.3334 2.66668V13.3333C13.3334 14.0667 12.7334 14.6667 12 14.6667H6.00002C5.26669 14.6667 4.66669 14.0667 4.66669 13.3333V12.6667C4.66669 12.4899 4.73693 12.3203 4.86195 12.1953C4.98697 12.0702 5.15654 12 5.33335 12C5.51016 12 5.67973 12.0702 5.80476 12.1953C5.92978 12.3203 6.00002 12.4899 6.00002 12.6667V13.3333H12V2.66668H6.00002V3.33334C6.00002 3.51015 5.92978 3.67972 5.80476 3.80475C5.67973 3.92977 5.51016 4.00001 5.33335 4.00001C5.15654 4.00001 4.98697 3.92977 4.86195 3.80475C4.73693 3.67972 4.66669 3.51015 4.66669 3.33334V2.66668C4.66669 1.93334 5.26669 1.33334 6.00002 1.33334Z" fill="#3B3B3B"/>
<path d="M7.19667 10.8633C7.45667 11.1233 7.87667 11.1233 8.13667 10.8633L10.5287 8.47133C10.6536 8.34631 10.7239 8.17677 10.7239 7.99999C10.7239 7.82322 10.6536 7.65368 10.5287 7.52866L8.13667 5.13666C8.00994 5.02212 7.84405 4.96065 7.67329 4.96496C7.50252 4.96928 7.33995 5.03903 7.21916 5.15982C7.09838 5.28061 7.02862 5.44318 7.02431 5.61395C7.02 5.78471 7.08146 5.9506 7.196 6.07733L8.44667 7.33333H2.66667C2.48986 7.33333 2.32029 7.40356 2.19526 7.52859C2.07024 7.65361 2 7.82318 2 7.99999C2 8.1768 2.07024 8.34637 2.19526 8.4714C2.32029 8.59642 2.48986 8.66666 2.66667 8.66666H8.44667L7.196 9.92266C7.07156 10.0476 7.00174 10.2168 7.00187 10.3931C7.00199 10.5695 7.07205 10.7386 7.19667 10.8633V10.8633Z" fill="#3B3B3B"/>
</svg>
