<svg width="24" height="24" viewBox="0 0 24 24" fill="none" xmlns="http://www.w3.org/2000/svg">
<path d="M12 2C6.48 2 2 6.48 2 12C2 17.52 6.48 22 12 22C17.52 22 22 17.52 22 12C22 6.48 17.52 2 12 2ZM12.91 18.15C12.8401 18.2185 12.7517 18.265 12.6556 18.2837C12.5595 18.3025 12.4601 18.2926 12.3696 18.2553C12.2791 18.2181 12.2015 18.155 12.1465 18.0741C12.0914 17.9932 12.0614 17.8979 12.06 17.8V17H12C10.72 17 9.44 16.51 8.46 15.54C7.78103 14.8594 7.31245 13.9976 7.11028 13.0577C6.90812 12.1178 6.98093 11.1396 7.32 10.24C7.51 9.73 8.18 9.6 8.56 9.99C8.78 10.21 8.83 10.53 8.73 10.81C8.27 12.05 8.53 13.49 9.53 14.49C10.23 15.19 11.15 15.52 12.07 15.5V14.56C12.07 14.11 12.61 13.89 12.92 14.21L14.54 15.83C14.74 16.03 14.74 16.34 14.54 16.54L12.91 18.15ZM15.44 14.02C15.3366 13.9136 15.2657 13.78 15.2356 13.6347C15.2055 13.4895 15.2174 13.3387 15.27 13.2C15.73 11.96 15.47 10.52 14.47 9.52C13.77 8.82 12.85 8.48 11.94 8.5V9.44C11.94 9.89 11.4 10.11 11.09 9.79L9.46 8.18C9.26 7.98 9.26 7.67 9.46 7.47L11.08 5.85C11.1499 5.78148 11.2383 5.73498 11.3344 5.71626C11.4305 5.69753 11.5299 5.70742 11.6204 5.74468C11.7109 5.78195 11.7885 5.84496 11.8435 5.92589C11.8986 6.00683 11.9286 6.10214 11.93 6.2V7.01C13.23 6.99 14.54 7.46 15.53 8.46C16.209 9.14063 16.6776 10.0024 16.8797 10.9423C17.0819 11.8822 17.0091 12.8604 16.67 13.76C16.48 14.28 15.82 14.41 15.44 14.02V14.02Z" fill="#E94560"/>
</svg>
