<svg width="25" height="24" viewBox="0 0 25 24" fill="none" xmlns="http://www.w3.org/2000/svg">
<path d="M15.67 6V18C15.67 18.55 15.22 19 14.67 19H11.34C10.79 19 10.34 18.55 10.34 18V6C10.34 5.45 10.79 5 11.34 5H14.67C15.22 5 15.67 5.45 15.67 6ZM17.67 19H21C21.55 19 22 18.55 22 18V6C22 5.45 21.55 5 21 5H17.67C17.12 5 16.67 5.45 16.67 6V18C16.67 18.55 17.11 19 17.67 19ZM9.33 18V6C9.33 5.45 8.88 5 8.33 5H5C4.45 5 4 5.45 4 6V18C4 18.55 4.45 19 5 19H8.33C8.89 19 9.33 18.55 9.33 18Z" fill="#E94560"/>
<path d="M7.62112 5.74075L7.53334 5.50667L7.62169 5.74054C7.86467 5.64874 8.13333 5.64926 8.37382 5.74546L8.3738 5.74551L8.37889 5.74742L12.3789 7.24742L12.3792 7.24752C12.5857 7.32467 12.7637 7.46297 12.8895 7.64396C13.0153 7.82495 13.083 8.04001 13.0833 8.26044V11.3933C13.0833 14.522 11.057 17.4383 8.30361 18.322L8.30288 18.3222C8.10634 18.3859 7.89367 18.3859 7.69713 18.3222L7.6964 18.322C4.94309 17.4383 2.91667 14.5155 2.91667 11.3933V8.26C2.91667 7.80592 3.19721 7.40423 3.62215 7.24037L7.62112 5.74075Z" fill="#E94560" stroke="white" stroke-width="0.5"/>
<path d="M7.99999 13.2415L9.29329 13.9577C9.53013 14.0889 9.81996 13.8949 9.75763 13.6495L9.41483 12.3028L10.5585 11.3955C10.7673 11.23 10.6551 10.9161 10.3809 10.8962L8.8757 10.7792L8.2867 9.50665C8.18074 9.27554 7.81925 9.27554 7.71329 9.50665L7.12429 10.7763L5.61909 10.8933C5.34485 10.9133 5.23266 11.2271 5.44145 11.3926L6.58516 12.2999L6.24236 13.6467C6.18003 13.892 6.46986 14.0861 6.7067 13.9548L7.99999 13.2415V13.2415Z" fill="white"/>
</svg>
