<svg width="24" height="24" viewBox="0 0 24 24" fill="none" xmlns="http://www.w3.org/2000/svg">
<path d="M4.08333 19C3.64792 19 3.27531 18.8478 2.9655 18.5434C2.65517 18.2386 2.5 17.8722 2.5 17.4444V6.55556C2.5 6.12778 2.65517 5.76144 2.9655 5.45656C3.27531 5.15219 3.64792 5 4.08333 5H19.9167C20.3521 5 20.725 5.15219 21.0353 5.45656C21.3451 5.76144 21.5 6.12778 21.5 6.55556V17.4444C21.5 17.8722 21.3451 18.2386 21.0353 18.5434C20.725 18.8478 20.3521 19 19.9167 19H4.08333ZM9.625 13.5556C10.2847 13.5556 10.8455 13.3287 11.3073 12.875C11.7691 12.4213 12 11.8704 12 11.2222C12 10.5741 11.7691 10.0231 11.3073 9.56944C10.8455 9.11574 10.2847 8.88889 9.625 8.88889C8.96528 8.88889 8.40451 9.11574 7.94271 9.56944C7.4809 10.0231 7.25 10.5741 7.25 11.2222C7.25 11.8704 7.4809 12.4213 7.94271 12.875C8.40451 13.3287 8.96528 13.5556 9.625 13.5556ZM17.5417 16.6667L19.125 15.1111L17.9375 13.5556H16.6313C16.5521 13.3222 16.4861 13.0726 16.4333 12.8066C16.3806 12.5411 16.3542 12.2722 16.3542 12C16.3542 11.7278 16.3806 11.4654 16.4333 11.2129C16.4861 10.9599 16.5521 10.7037 16.6313 10.4444H17.9375L19.125 8.88889L17.5417 7.33333C16.8292 7.87778 16.2552 8.56793 15.8198 9.40378C15.3844 10.2401 15.1667 11.1056 15.1667 12C15.1667 12.8944 15.3844 13.7596 15.8198 14.5954C16.2552 15.4318 16.8292 16.1222 17.5417 16.6667ZM4.1625 17.4444H15.0875C14.5333 16.4722 13.7681 15.7105 12.7917 15.1593C11.8153 14.6087 10.7597 14.3333 9.625 14.3333C8.49028 14.3333 7.43472 14.6087 6.45833 15.1593C5.48194 15.7105 4.71667 16.4722 4.1625 17.4444Z" fill="#E94560"/>
</svg>
