<svg width="24" height="24" viewBox="0 0 24 24" fill="none" xmlns="http://www.w3.org/2000/svg">
<path d="M1.54724 22.4273C1.54724 20.9505 1.83974 17.3573 3.95924 15.0323C6.60749 12.1275 10.3447 11.6925 12 11.6925C13.6552 11.6925 17.3925 12.1268 20.0407 15.033C22.1602 17.358 22.4527 20.9505 22.4527 22.4273H1.54724Z" fill="url(#paint0_radial_31_6016)"/>
<path d="M1.54724 22.4273C1.54724 20.9505 1.83974 17.3573 3.95924 15.0323C6.60749 12.1275 10.3447 11.6925 12 11.6925C13.6552 11.6925 17.3925 12.1268 20.0407 15.033C22.1602 17.358 22.4527 20.9505 22.4527 22.4273H1.54724Z" fill="url(#paint1_radial_31_6016)"/>
<g filter="url(#filter0_f_31_6016)">
<path d="M2.508 22.4272C2.508 21.012 2.77425 17.5672 4.698 15.3397C7.10325 12.5535 10.497 12.138 12 12.138C13.503 12.138 16.8967 12.5535 19.302 15.339C21.2257 17.568 21.492 21.012 21.492 22.4265H2.508V22.4272Z" fill="url(#paint2_linear_31_6016)"/>
</g>
<path d="M12.0232 11.6895C7.35224 11.6895 3.33524 14.8305 3.02924 22.4003V22.4273H21.0172V22.4003C20.7112 14.8305 16.6942 11.6903 12.0232 11.6903V11.6895Z" fill="url(#paint3_radial_31_6016)"/>
<path d="M12.0232 11.6895C7.35224 11.6895 3.33524 14.8305 3.02924 22.4003V22.4273H21.0172V22.4003C20.7112 14.8305 16.6942 11.6903 12.0232 11.6903V11.6895Z" fill="url(#paint4_radial_31_6016)"/>
<path d="M17.76 13.812V22.4273H21.0172V22.4003C20.8522 18.315 19.6065 15.5198 17.76 13.812V13.812Z" fill="#4E9EFF"/>
<path d="M17.76 13.812V22.4273H21.0172V22.4003C20.8522 18.315 19.6065 15.5198 17.76 13.812V13.812Z" fill="url(#paint5_linear_31_6016)"/>
<path d="M17.76 13.812V22.4273H21.0172V22.4003C20.8522 18.315 19.6065 15.5198 17.76 13.812V13.812Z" fill="url(#paint6_radial_31_6016)"/>
<path d="M17.76 13.812V22.4273H21.0172V22.4003C20.8522 18.315 19.6065 15.5198 17.76 13.812V13.812Z" fill="url(#paint7_radial_31_6016)"/>
<path d="M6.28724 13.812V22.4273H3.02924V22.4003C3.19424 18.315 4.44074 15.5198 6.28724 13.812V13.812Z" fill="url(#paint8_linear_31_6016)"/>
<path d="M6.28724 13.812V22.4273H3.02924V22.4003C3.19424 18.315 4.44074 15.5198 6.28724 13.812V13.812Z" fill="url(#paint9_radial_31_6016)"/>
<path d="M6.28724 13.812V22.4273H3.02924V22.4003C3.19424 18.315 4.44074 15.5198 6.28724 13.812V13.812Z" fill="url(#paint10_radial_31_6016)"/>
<path d="M6.28724 13.812V22.4273H3.02924V22.4003C3.19424 18.315 4.44074 15.5198 6.28724 13.812V13.812Z" fill="url(#paint11_radial_31_6016)"/>
<g filter="url(#filter1_f_31_6016)">
<path d="M9.65625 17.5253C9.5393 17.5254 9.42445 17.5563 9.32332 17.6151C9.2222 17.6738 9.13839 17.7582 9.08038 17.8598C9.02237 17.9613 8.99223 18.0764 8.993 18.1934C8.99376 18.3103 9.02541 18.425 9.08475 18.5258L10.6912 21.2543C10.79 21.4219 10.9307 21.5609 11.0996 21.6575C11.2685 21.754 11.4597 21.8048 11.6542 21.8048C11.8488 21.8048 12.04 21.754 12.2089 21.6575C12.3778 21.5609 12.5185 21.4219 12.6172 21.2543L14.2237 18.5258C14.2831 18.425 14.3147 18.3103 14.3155 18.1934C14.3163 18.0764 14.2861 17.9613 14.2281 17.8598C14.1701 17.7582 14.0863 17.6738 13.9852 17.6151C13.8841 17.5563 13.7692 17.5254 13.6522 17.5253H9.65625Z" fill="#2F63D5"/>
</g>
<g filter="url(#filter2_iii_31_6016)">
<path d="M9.8475 17.2087C9.72185 17.2087 9.59843 17.242 9.48976 17.3051C9.3811 17.3682 9.29105 17.4589 9.22876 17.568C9.16646 17.6771 9.13414 17.8008 9.13506 17.9265C9.13598 18.0521 9.17011 18.1753 9.234 18.2835L10.9605 21.2137C11.0665 21.3937 11.2177 21.5428 11.399 21.6464C11.5803 21.7501 11.7855 21.8046 11.9944 21.8046C12.2032 21.8046 12.4084 21.7501 12.5898 21.6464C12.7711 21.5428 12.9222 21.3937 13.0283 21.2137L14.754 18.2835C14.8179 18.1752 14.8521 18.052 14.8529 17.9263C14.8538 17.8006 14.8214 17.6768 14.7591 17.5677C14.6967 17.4585 14.6065 17.3678 14.4978 17.3048C14.389 17.2418 14.2655 17.2086 14.1398 17.2087H9.84825H9.8475Z" fill="url(#paint12_linear_31_6016)"/>
<path d="M9.8475 17.2087C9.72185 17.2087 9.59843 17.242 9.48976 17.3051C9.3811 17.3682 9.29105 17.4589 9.22876 17.568C9.16646 17.6771 9.13414 17.8008 9.13506 17.9265C9.13598 18.0521 9.17011 18.1753 9.234 18.2835L10.9605 21.2137C11.0665 21.3937 11.2177 21.5428 11.399 21.6464C11.5803 21.7501 11.7855 21.8046 11.9944 21.8046C12.2032 21.8046 12.4084 21.7501 12.5898 21.6464C12.7711 21.5428 12.9222 21.3937 13.0283 21.2137L14.754 18.2835C14.8179 18.1752 14.8521 18.052 14.8529 17.9263C14.8538 17.8006 14.8214 17.6768 14.7591 17.5677C14.6967 17.4585 14.6065 17.3678 14.4978 17.3048C14.389 17.2418 14.2655 17.2086 14.1398 17.2087H9.84825H9.8475Z" fill="url(#paint13_linear_31_6016)"/>
</g>
<path d="M9.8475 17.2087C9.72185 17.2087 9.59843 17.242 9.48976 17.3051C9.3811 17.3682 9.29105 17.4589 9.22876 17.568C9.16646 17.6771 9.13414 17.8008 9.13506 17.9265C9.13598 18.0521 9.17011 18.1753 9.234 18.2835L10.9605 21.2137C11.0665 21.3937 11.2177 21.5428 11.399 21.6464C11.5803 21.7501 11.7855 21.8046 11.9944 21.8046C12.2032 21.8046 12.4084 21.7501 12.5898 21.6464C12.7711 21.5428 12.9222 21.3937 13.0283 21.2137L14.754 18.2835C14.8179 18.1752 14.8521 18.052 14.8529 17.9263C14.8538 17.8006 14.8214 17.6768 14.7591 17.5677C14.6967 17.4585 14.6065 17.3678 14.4978 17.3048C14.389 17.2418 14.2655 17.2086 14.1398 17.2087H9.84825H9.8475Z" fill="url(#paint14_radial_31_6016)"/>
<g filter="url(#filter3_f_31_6016)">
<path d="M11.781 15.9495C12.2151 15.9495 12.567 15.5952 12.567 15.1583C12.567 14.7213 12.2151 14.367 11.781 14.367C11.3469 14.367 10.995 14.7213 10.995 15.1583C10.995 15.5952 11.3469 15.9495 11.781 15.9495Z" fill="#2F62B7"/>
</g>
<g filter="url(#filter4_i_31_6016)">
<path d="M11.994 15.2873L8.21399 13.02C7.97174 12.87 7.71674 12.636 7.71674 12.2843C7.71674 11.9123 8.15549 11.8845 8.38049 11.877L11.994 11.8185L15.6082 11.877C15.8332 11.8845 16.2712 11.9123 16.2712 12.2843C16.2712 12.636 16.0162 12.87 15.774 13.0193L11.994 15.2873Z" fill="url(#paint15_linear_31_6016)"/>
<path d="M11.994 15.2873L8.21399 13.02C7.97174 12.87 7.71674 12.636 7.71674 12.2843C7.71674 11.9123 8.15549 11.8845 8.38049 11.877L11.994 11.8185L15.6082 11.877C15.8332 11.8845 16.2712 11.9123 16.2712 12.2843C16.2712 12.636 16.0162 12.87 15.774 13.0193L11.994 15.2873Z" fill="url(#paint16_radial_31_6016)"/>
<path d="M11.994 15.2873L8.21399 13.02C7.97174 12.87 7.71674 12.636 7.71674 12.2843C7.71674 11.9123 8.15549 11.8845 8.38049 11.877L11.994 11.8185L15.6082 11.877C15.8332 11.8845 16.2712 11.9123 16.2712 12.2843C16.2712 12.636 16.0162 12.87 15.774 13.0193L11.994 15.2873Z" fill="url(#paint17_radial_31_6016)"/>
</g>
<path d="M11.994 15.879C12.4281 15.879 12.78 15.5248 12.78 15.0878C12.78 14.6508 12.4281 14.2965 11.994 14.2965C11.5599 14.2965 11.208 14.6508 11.208 15.0878C11.208 15.5248 11.5599 15.879 11.994 15.879Z" fill="url(#paint18_radial_31_6016)"/>
<path d="M11.994 15.879C12.4281 15.879 12.78 15.5248 12.78 15.0878C12.78 14.6508 12.4281 14.2965 11.994 14.2965C11.5599 14.2965 11.208 14.6508 11.208 15.0878C11.208 15.5248 11.5599 15.879 11.994 15.879Z" fill="url(#paint19_radial_31_6016)"/>
<path d="M13.5315 11.4758C13.5315 10.6245 12.8416 9.93451 11.9906 9.93451C11.1396 9.93451 10.4497 10.6245 10.4497 11.4758V12.4425C10.4497 13.2937 11.1396 13.9838 11.9906 13.9838C12.8416 13.9838 13.5315 13.2937 13.5315 12.4425V11.4758Z" fill="url(#paint20_radial_31_6016)"/>
<path d="M13.5315 11.4758C13.5315 10.6245 12.8416 9.93451 11.9906 9.93451C11.1396 9.93451 10.4497 10.6245 10.4497 11.4758V12.4425C10.4497 13.2937 11.1396 13.9838 11.9906 13.9838C12.8416 13.9838 13.5315 13.2937 13.5315 12.4425V11.4758Z" fill="url(#paint21_radial_31_6016)"/>
<g filter="url(#filter5_i_31_6016)">
<path d="M8.42925 9.28354C9.1214 9.28354 9.68249 8.72244 9.68249 8.03029C9.68249 7.33814 9.1214 6.77704 8.42925 6.77704C7.73709 6.77704 7.17599 7.33814 7.17599 8.03029C7.17599 8.72244 7.73709 9.28354 8.42925 9.28354Z" fill="url(#paint22_radial_31_6016)"/>
</g>
<g filter="url(#filter6_f_31_6016)">
<path d="M8.42925 8.77726C8.84181 8.77726 9.17625 8.44282 9.17625 8.03026C9.17625 7.61771 8.84181 7.28326 8.42925 7.28326C8.01669 7.28326 7.68225 7.61771 7.68225 8.03026C7.68225 8.44282 8.01669 8.77726 8.42925 8.77726Z" fill="url(#paint23_linear_31_6016)"/>
</g>
<g filter="url(#filter7_i_31_6016)">
<path d="M15.5708 9.28354C16.2629 9.28354 16.824 8.72244 16.824 8.03029C16.824 7.33814 16.2629 6.77704 15.5708 6.77704C14.8786 6.77704 14.3175 7.33814 14.3175 8.03029C14.3175 8.72244 14.8786 9.28354 15.5708 9.28354Z" fill="url(#paint24_linear_31_6016)"/>
<path d="M15.5708 9.28354C16.2629 9.28354 16.824 8.72244 16.824 8.03029C16.824 7.33814 16.2629 6.77704 15.5708 6.77704C14.8786 6.77704 14.3175 7.33814 14.3175 8.03029C14.3175 8.72244 14.8786 9.28354 15.5708 9.28354Z" fill="url(#paint25_radial_31_6016)"/>
</g>
<g filter="url(#filter8_f_31_6016)">
<path d="M15.5707 8.77726C15.9833 8.77726 16.3177 8.44282 16.3177 8.03026C16.3177 7.61771 15.9833 7.28326 15.5707 7.28326C15.1582 7.28326 14.8237 7.61771 14.8237 8.03026C14.8237 8.44282 15.1582 8.77726 15.5707 8.77726Z" fill="#7A5654"/>
<path d="M15.5707 8.77726C15.9833 8.77726 16.3177 8.44282 16.3177 8.03026C16.3177 7.61771 15.9833 7.28326 15.5707 7.28326C15.1582 7.28326 14.8237 7.61771 14.8237 8.03026C14.8237 8.44282 15.1582 8.77726 15.5707 8.77726Z" fill="url(#paint26_radial_31_6016)"/>
<path d="M15.5707 8.77726C15.9833 8.77726 16.3177 8.44282 16.3177 8.03026C16.3177 7.61771 15.9833 7.28326 15.5707 7.28326C15.1582 7.28326 14.8237 7.61771 14.8237 8.03026C14.8237 8.44282 15.1582 8.77726 15.5707 8.77726Z" fill="url(#paint27_radial_31_6016)"/>
</g>
<g filter="url(#filter9_i_31_6016)">
<path d="M8.16525 7.56974C8.17748 7.57065 8.18974 7.57115 8.202 7.57124C8.202 7.57124 8.1615 6.93074 8.121 6.49049C8.121 6.29024 8.202 6.04949 8.3625 5.92949L8.484 5.80949C8.685 5.64899 8.76525 5.40899 8.76525 5.16899V4.52849C8.76129 4.43397 8.79182 4.34124 8.85115 4.26756C8.91048 4.19388 8.99457 4.14428 9.08775 4.12799C9.57075 4.00799 10.5773 3.80774 12.0278 3.80774C13.4768 3.80774 14.4833 4.00799 14.967 4.12799C15.1283 4.16774 15.2895 4.32824 15.2895 4.52849V5.16899C15.2895 5.40899 15.4095 5.64899 15.5708 5.80949C15.948 6.07349 15.924 6.21899 15.8933 6.52949C15.8606 6.88955 15.8336 7.25009 15.8123 7.61099H15.8258L15.6263 10.5825C15.5063 11.9115 14.4615 12.837 13.2165 12.837H10.806C9.52125 12.837 8.517 11.9115 8.39625 10.5825L8.16525 7.56974Z" fill="url(#paint28_linear_31_6016)"/>
<path d="M8.16525 7.56974C8.17748 7.57065 8.18974 7.57115 8.202 7.57124C8.202 7.57124 8.1615 6.93074 8.121 6.49049C8.121 6.29024 8.202 6.04949 8.3625 5.92949L8.484 5.80949C8.685 5.64899 8.76525 5.40899 8.76525 5.16899V4.52849C8.76129 4.43397 8.79182 4.34124 8.85115 4.26756C8.91048 4.19388 8.99457 4.14428 9.08775 4.12799C9.57075 4.00799 10.5773 3.80774 12.0278 3.80774C13.4768 3.80774 14.4833 4.00799 14.967 4.12799C15.1283 4.16774 15.2895 4.32824 15.2895 4.52849V5.16899C15.2895 5.40899 15.4095 5.64899 15.5708 5.80949C15.948 6.07349 15.924 6.21899 15.8933 6.52949C15.8606 6.88955 15.8336 7.25009 15.8123 7.61099H15.8258L15.6263 10.5825C15.5063 11.9115 14.4615 12.837 13.2165 12.837H10.806C9.52125 12.837 8.517 11.9115 8.39625 10.5825L8.16525 7.56974Z" fill="url(#paint29_radial_31_6016)"/>
<path d="M8.16525 7.56974C8.17748 7.57065 8.18974 7.57115 8.202 7.57124C8.202 7.57124 8.1615 6.93074 8.121 6.49049C8.121 6.29024 8.202 6.04949 8.3625 5.92949L8.484 5.80949C8.685 5.64899 8.76525 5.40899 8.76525 5.16899V4.52849C8.76129 4.43397 8.79182 4.34124 8.85115 4.26756C8.91048 4.19388 8.99457 4.14428 9.08775 4.12799C9.57075 4.00799 10.5773 3.80774 12.0278 3.80774C13.4768 3.80774 14.4833 4.00799 14.967 4.12799C15.1283 4.16774 15.2895 4.32824 15.2895 4.52849V5.16899C15.2895 5.40899 15.4095 5.64899 15.5708 5.80949C15.948 6.07349 15.924 6.21899 15.8933 6.52949C15.8606 6.88955 15.8336 7.25009 15.8123 7.61099H15.8258L15.6263 10.5825C15.5063 11.9115 14.4615 12.837 13.2165 12.837H10.806C9.52125 12.837 8.517 11.9115 8.39625 10.5825L8.16525 7.56974Z" fill="url(#paint30_radial_31_6016)"/>
</g>
<path d="M8.121 6.49049C8.121 6.29024 8.202 6.04949 8.3625 5.92949L8.484 5.80949C8.685 5.64899 8.76525 5.40899 8.76525 5.16899V4.52849C8.76129 4.43397 8.79182 4.34124 8.85115 4.26756C8.91048 4.19388 8.99457 4.14428 9.08775 4.12799C9.57075 4.00799 10.5773 3.80774 12.0278 3.80774C13.4768 3.80774 14.4833 4.00799 14.967 4.12799C15.1283 4.16774 15.2895 4.32824 15.2895 4.52849V5.16899C15.2895 5.40899 15.4095 5.64899 15.5708 5.80949C15.948 6.07349 15.924 6.21899 15.8933 6.52949C15.8606 6.88955 15.8336 7.25009 15.8123 7.61099H15.8258L15.6263 10.5825C15.5063 11.9115 14.4615 12.837 13.2165 12.837H10.806C9.52125 12.837 8.517 11.9115 8.39625 10.5825C8.29125 9.21899 8.24625 7.85174 8.121 6.49049Z" fill="url(#paint31_linear_31_6016)"/>
<path d="M8.121 6.49049C8.121 6.29024 8.202 6.04949 8.3625 5.92949L8.484 5.80949C8.685 5.64899 8.76525 5.40899 8.76525 5.16899V4.52849C8.76129 4.43397 8.79182 4.34124 8.85115 4.26756C8.91048 4.19388 8.99457 4.14428 9.08775 4.12799C9.57075 4.00799 10.5773 3.80774 12.0278 3.80774C13.4768 3.80774 14.4833 4.00799 14.967 4.12799C15.1283 4.16774 15.2895 4.32824 15.2895 4.52849V5.16899C15.2895 5.40899 15.4095 5.64899 15.5708 5.80949C15.948 6.07349 15.924 6.21899 15.8933 6.52949C15.8606 6.88955 15.8336 7.25009 15.8123 7.61099H15.8258L15.6263 10.5825C15.5063 11.9115 14.4615 12.837 13.2165 12.837H10.806C9.52125 12.837 8.517 11.9115 8.39625 10.5825C8.29125 9.21899 8.24625 7.85174 8.121 6.49049Z" fill="url(#paint32_linear_31_6016)"/>
<path d="M8.121 6.49049C8.121 6.29024 8.202 6.04949 8.3625 5.92949L8.484 5.80949C8.685 5.64899 8.76525 5.40899 8.76525 5.16899V4.52849C8.76129 4.43397 8.79182 4.34124 8.85115 4.26756C8.91048 4.19388 8.99457 4.14428 9.08775 4.12799C9.57075 4.00799 10.5773 3.80774 12.0278 3.80774C13.4768 3.80774 14.4833 4.00799 14.967 4.12799C15.1283 4.16774 15.2895 4.32824 15.2895 4.52849V5.16899C15.2895 5.40899 15.4095 5.64899 15.5708 5.80949C15.948 6.07349 15.924 6.21899 15.8933 6.52949C15.8606 6.88955 15.8336 7.25009 15.8123 7.61099H15.8258L15.6263 10.5825C15.5063 11.9115 14.4615 12.837 13.2165 12.837H10.806C9.52125 12.837 8.517 11.9115 8.39625 10.5825C8.29125 9.21899 8.24625 7.85174 8.121 6.49049Z" fill="url(#paint33_radial_31_6016)"/>
<path d="M8.21099 8.45703H8.48549C8.62649 8.45703 8.75999 8.48703 8.88599 8.54703L9.07049 8.63853C9.13799 8.66853 9.20399 8.69853 9.27074 8.72178L9.43349 8.77428C9.75224 8.87328 10.0935 8.88078 10.4115 8.78928L10.6192 8.72928C10.7002 8.70678 10.782 8.67678 10.8562 8.63853L11.0265 8.55528C11.1525 8.49528 11.2852 8.46453 11.4262 8.46453H11.7607L11.901 8.14503C11.9902 7.84953 11.9415 7.71453 12.03 8.01003L12.165 8.46453H12.5145C12.6555 8.46453 12.789 8.49453 12.915 8.55528L13.0702 8.63103C13.152 8.66853 13.2405 8.70603 13.3297 8.72928L13.5592 8.79753C13.8801 8.88991 14.2219 8.87942 14.5365 8.76753L14.67 8.72253L14.8477 8.65353L15.048 8.56353C15.1724 8.50268 15.3092 8.47136 15.4477 8.47203H15.774C15.8145 7.80078 15.852 7.13028 15.8857 6.45903H15.522C15.3318 6.44365 15.1485 6.381 14.9887 6.27678L14.9512 6.25428C14.8238 6.1647 14.6845 6.0935 14.5372 6.04278C14.2224 5.93089 13.8804 5.92039 13.5592 6.01278L13.4632 6.03528C13.2855 6.08778 13.1145 6.16353 12.9592 6.27678C12.8038 6.38782 12.617 6.44617 12.426 6.44328H11.5072C11.3152 6.44328 11.13 6.38328 10.9747 6.27678L10.9672 6.26928C10.8203 6.16601 10.6577 6.08701 10.4857 6.03528L10.4182 6.01278C10.0984 5.91935 9.75781 5.92458 9.44099 6.02778L9.41099 6.03528C9.25574 6.08778 9.10799 6.16353 8.96699 6.25428C8.80642 6.37938 8.60802 6.44604 8.40449 6.44328H8.14499C8.15099 7.11753 8.17649 7.78653 8.21099 8.45703V8.45703Z" fill="url(#paint34_linear_31_6016)"/>
<path d="M8.21099 8.45703H8.48549C8.62649 8.45703 8.75999 8.48703 8.88599 8.54703L9.07049 8.63853C9.13799 8.66853 9.20399 8.69853 9.27074 8.72178L9.43349 8.77428C9.75224 8.87328 10.0935 8.88078 10.4115 8.78928L10.6192 8.72928C10.7002 8.70678 10.782 8.67678 10.8562 8.63853L11.0265 8.55528C11.1525 8.49528 11.2852 8.46453 11.4262 8.46453H11.7607L11.901 8.14503C11.9902 7.84953 11.9415 7.71453 12.03 8.01003L12.165 8.46453H12.5145C12.6555 8.46453 12.789 8.49453 12.915 8.55528L13.0702 8.63103C13.152 8.66853 13.2405 8.70603 13.3297 8.72928L13.5592 8.79753C13.8801 8.88991 14.2219 8.87942 14.5365 8.76753L14.67 8.72253L14.8477 8.65353L15.048 8.56353C15.1724 8.50268 15.3092 8.47136 15.4477 8.47203H15.774C15.8145 7.80078 15.852 7.13028 15.8857 6.45903H15.522C15.3318 6.44365 15.1485 6.381 14.9887 6.27678L14.9512 6.25428C14.8238 6.1647 14.6845 6.0935 14.5372 6.04278C14.2224 5.93089 13.8804 5.92039 13.5592 6.01278L13.4632 6.03528C13.2855 6.08778 13.1145 6.16353 12.9592 6.27678C12.8038 6.38782 12.617 6.44617 12.426 6.44328H11.5072C11.3152 6.44328 11.13 6.38328 10.9747 6.27678L10.9672 6.26928C10.8203 6.16601 10.6577 6.08701 10.4857 6.03528L10.4182 6.01278C10.0984 5.91935 9.75781 5.92458 9.44099 6.02778L9.41099 6.03528C9.25574 6.08778 9.10799 6.16353 8.96699 6.25428C8.80642 6.37938 8.60802 6.44604 8.40449 6.44328H8.14499C8.15099 7.11753 8.17649 7.78653 8.21099 8.45703V8.45703Z" fill="url(#paint35_linear_31_6016)"/>
<g filter="url(#filter10_f_31_6016)">
<path d="M14.9692 3.80774L12.6592 4.57799C12.4737 4.63986 12.3179 4.76869 12.2222 4.93932C12.1266 5.10995 12.098 5.3101 12.1421 5.50068C12.1861 5.69125 12.2996 5.85855 12.4605 5.96989C12.6213 6.08122 12.8179 6.12859 13.0117 6.10274L15.3082 5.79524L14.9692 3.80774V3.80774Z" fill="url(#paint36_linear_31_6016)"/>
</g>
<g filter="url(#filter11_i_31_6016)">
<path d="M15.6112 3.16726L15.9337 3.32701C16.497 3.60751 16.8187 4.24801 16.6987 4.92901L16.2555 7.21051C16.2157 7.44676 16.0605 7.60501 15.8257 7.61101H15.8122C15.8122 7.61101 15.8527 6.93076 15.8932 6.53026C15.9255 6.20476 15.8692 6.10576 15.5707 5.80951C15.4095 5.64901 15.2887 5.40901 15.2887 5.16901V4.52851C15.2887 4.32826 15.1275 4.16851 14.9662 4.12801C14.484 4.00801 13.4767 3.80776 12.027 3.80776C10.5772 3.80776 9.57073 4.00801 9.08773 4.12801C8.99454 4.1443 8.91046 4.19391 8.85113 4.26759C8.7918 4.34127 8.76127 4.434 8.76523 4.52851V5.16901C8.76523 5.40901 8.68498 5.64901 8.48398 5.80951L8.36248 5.92951C8.20198 6.04951 8.12098 6.28951 8.12098 6.49051C8.16148 6.93076 8.20198 7.57051 8.20198 7.57051H8.16448C8.05553 7.56518 7.95173 7.52254 7.87048 7.44976C7.78923 7.37698 7.73548 7.27847 7.71823 7.17076L7.27573 4.88851C7.19548 4.24801 7.51723 3.60751 8.08123 3.32701L8.40373 3.16726C8.60473 3.04726 8.80573 2.88676 9.00748 2.72626L9.73198 1.96576C10.1745 1.56526 10.8195 1.44526 11.3827 1.72576C11.7855 1.84576 12.2287 1.84576 12.6315 1.72576C13.2352 1.52551 13.92 1.68526 14.403 2.12626L15.0067 2.72626C15.168 2.92651 15.3697 3.04726 15.6112 3.16726V3.16726Z" fill="#27151C"/>
<path d="M15.6112 3.16726L15.9337 3.32701C16.497 3.60751 16.8187 4.24801 16.6987 4.92901L16.2555 7.21051C16.2157 7.44676 16.0605 7.60501 15.8257 7.61101H15.8122C15.8122 7.61101 15.8527 6.93076 15.8932 6.53026C15.9255 6.20476 15.8692 6.10576 15.5707 5.80951C15.4095 5.64901 15.2887 5.40901 15.2887 5.16901V4.52851C15.2887 4.32826 15.1275 4.16851 14.9662 4.12801C14.484 4.00801 13.4767 3.80776 12.027 3.80776C10.5772 3.80776 9.57073 4.00801 9.08773 4.12801C8.99454 4.1443 8.91046 4.19391 8.85113 4.26759C8.7918 4.34127 8.76127 4.434 8.76523 4.52851V5.16901C8.76523 5.40901 8.68498 5.64901 8.48398 5.80951L8.36248 5.92951C8.20198 6.04951 8.12098 6.28951 8.12098 6.49051C8.16148 6.93076 8.20198 7.57051 8.20198 7.57051H8.16448C8.05553 7.56518 7.95173 7.52254 7.87048 7.44976C7.78923 7.37698 7.73548 7.27847 7.71823 7.17076L7.27573 4.88851C7.19548 4.24801 7.51723 3.60751 8.08123 3.32701L8.40373 3.16726C8.60473 3.04726 8.80573 2.88676 9.00748 2.72626L9.73198 1.96576C10.1745 1.56526 10.8195 1.44526 11.3827 1.72576C11.7855 1.84576 12.2287 1.84576 12.6315 1.72576C13.2352 1.52551 13.92 1.68526 14.403 2.12626L15.0067 2.72626C15.168 2.92651 15.3697 3.04726 15.6112 3.16726V3.16726Z" fill="url(#paint37_radial_31_6016)"/>
<path d="M15.6112 3.16726L15.9337 3.32701C16.497 3.60751 16.8187 4.24801 16.6987 4.92901L16.2555 7.21051C16.2157 7.44676 16.0605 7.60501 15.8257 7.61101H15.8122C15.8122 7.61101 15.8527 6.93076 15.8932 6.53026C15.9255 6.20476 15.8692 6.10576 15.5707 5.80951C15.4095 5.64901 15.2887 5.40901 15.2887 5.16901V4.52851C15.2887 4.32826 15.1275 4.16851 14.9662 4.12801C14.484 4.00801 13.4767 3.80776 12.027 3.80776C10.5772 3.80776 9.57073 4.00801 9.08773 4.12801C8.99454 4.1443 8.91046 4.19391 8.85113 4.26759C8.7918 4.34127 8.76127 4.434 8.76523 4.52851V5.16901C8.76523 5.40901 8.68498 5.64901 8.48398 5.80951L8.36248 5.92951C8.20198 6.04951 8.12098 6.28951 8.12098 6.49051C8.16148 6.93076 8.20198 7.57051 8.20198 7.57051H8.16448C8.05553 7.56518 7.95173 7.52254 7.87048 7.44976C7.78923 7.37698 7.73548 7.27847 7.71823 7.17076L7.27573 4.88851C7.19548 4.24801 7.51723 3.60751 8.08123 3.32701L8.40373 3.16726C8.60473 3.04726 8.80573 2.88676 9.00748 2.72626L9.73198 1.96576C10.1745 1.56526 10.8195 1.44526 11.3827 1.72576C11.7855 1.84576 12.2287 1.84576 12.6315 1.72576C13.2352 1.52551 13.92 1.68526 14.403 2.12626L15.0067 2.72626C15.168 2.92651 15.3697 3.04726 15.6112 3.16726V3.16726Z" fill="url(#paint38_radial_31_6016)"/>
<path d="M15.6112 3.16726L15.9337 3.32701C16.497 3.60751 16.8187 4.24801 16.6987 4.92901L16.2555 7.21051C16.2157 7.44676 16.0605 7.60501 15.8257 7.61101H15.8122C15.8122 7.61101 15.8527 6.93076 15.8932 6.53026C15.9255 6.20476 15.8692 6.10576 15.5707 5.80951C15.4095 5.64901 15.2887 5.40901 15.2887 5.16901V4.52851C15.2887 4.32826 15.1275 4.16851 14.9662 4.12801C14.484 4.00801 13.4767 3.80776 12.027 3.80776C10.5772 3.80776 9.57073 4.00801 9.08773 4.12801C8.99454 4.1443 8.91046 4.19391 8.85113 4.26759C8.7918 4.34127 8.76127 4.434 8.76523 4.52851V5.16901C8.76523 5.40901 8.68498 5.64901 8.48398 5.80951L8.36248 5.92951C8.20198 6.04951 8.12098 6.28951 8.12098 6.49051C8.16148 6.93076 8.20198 7.57051 8.20198 7.57051H8.16448C8.05553 7.56518 7.95173 7.52254 7.87048 7.44976C7.78923 7.37698 7.73548 7.27847 7.71823 7.17076L7.27573 4.88851C7.19548 4.24801 7.51723 3.60751 8.08123 3.32701L8.40373 3.16726C8.60473 3.04726 8.80573 2.88676 9.00748 2.72626L9.73198 1.96576C10.1745 1.56526 10.8195 1.44526 11.3827 1.72576C11.7855 1.84576 12.2287 1.84576 12.6315 1.72576C13.2352 1.52551 13.92 1.68526 14.403 2.12626L15.0067 2.72626C15.168 2.92651 15.3697 3.04726 15.6112 3.16726V3.16726Z" fill="url(#paint39_radial_31_6016)"/>
<path d="M15.6112 3.16726L15.9337 3.32701C16.497 3.60751 16.8187 4.24801 16.6987 4.92901L16.2555 7.21051C16.2157 7.44676 16.0605 7.60501 15.8257 7.61101H15.8122C15.8122 7.61101 15.8527 6.93076 15.8932 6.53026C15.9255 6.20476 15.8692 6.10576 15.5707 5.80951C15.4095 5.64901 15.2887 5.40901 15.2887 5.16901V4.52851C15.2887 4.32826 15.1275 4.16851 14.9662 4.12801C14.484 4.00801 13.4767 3.80776 12.027 3.80776C10.5772 3.80776 9.57073 4.00801 9.08773 4.12801C8.99454 4.1443 8.91046 4.19391 8.85113 4.26759C8.7918 4.34127 8.76127 4.434 8.76523 4.52851V5.16901C8.76523 5.40901 8.68498 5.64901 8.48398 5.80951L8.36248 5.92951C8.20198 6.04951 8.12098 6.28951 8.12098 6.49051C8.16148 6.93076 8.20198 7.57051 8.20198 7.57051H8.16448C8.05553 7.56518 7.95173 7.52254 7.87048 7.44976C7.78923 7.37698 7.73548 7.27847 7.71823 7.17076L7.27573 4.88851C7.19548 4.24801 7.51723 3.60751 8.08123 3.32701L8.40373 3.16726C8.60473 3.04726 8.80573 2.88676 9.00748 2.72626L9.73198 1.96576C10.1745 1.56526 10.8195 1.44526 11.3827 1.72576C11.7855 1.84576 12.2287 1.84576 12.6315 1.72576C13.2352 1.52551 13.92 1.68526 14.403 2.12626L15.0067 2.72626C15.168 2.92651 15.3697 3.04726 15.6112 3.16726V3.16726Z" fill="url(#paint40_radial_31_6016)"/>
</g>
<g filter="url(#filter12_f_31_6016)">
<path d="M11.787 7.93801L11.1712 9.21452C11.0947 9.47702 11.2777 9.73951 11.5372 9.73951H12.0907C12.3502 9.73951 12.5332 9.47252 12.4575 9.21452L12.0825 7.93801C12.003 7.65526 11.871 7.65526 11.787 7.93801Z" fill="#71404A"/>
</g>
<path d="M11.7067 7.81576L11.3077 9.09151C11.2889 9.15238 11.2846 9.21684 11.2953 9.27966C11.306 9.34248 11.3314 9.40188 11.3694 9.45304C11.4074 9.50419 11.457 9.54566 11.514 9.57406C11.5711 9.60247 11.634 9.61701 11.6977 9.61651H12.2887C12.3525 9.61701 12.4154 9.60247 12.4725 9.57406C12.5295 9.54566 12.579 9.50419 12.617 9.45304C12.655 9.40188 12.6804 9.34248 12.6912 9.27966C12.7019 9.21684 12.6976 9.15238 12.6787 9.09151L12.2805 7.81576C12.195 7.53301 11.796 7.53301 11.7067 7.81576V7.81576Z" fill="#8C5F5E"/>
<path d="M11.7067 7.81576L11.3077 9.09151C11.2889 9.15238 11.2846 9.21684 11.2953 9.27966C11.306 9.34248 11.3314 9.40188 11.3694 9.45304C11.4074 9.50419 11.457 9.54566 11.514 9.57406C11.5711 9.60247 11.634 9.61701 11.6977 9.61651H12.2887C12.3525 9.61701 12.4154 9.60247 12.4725 9.57406C12.5295 9.54566 12.579 9.50419 12.617 9.45304C12.655 9.40188 12.6804 9.34248 12.6912 9.27966C12.7019 9.21684 12.6976 9.15238 12.6787 9.09151L12.2805 7.81576C12.195 7.53301 11.796 7.53301 11.7067 7.81576V7.81576Z" fill="url(#paint41_linear_31_6016)"/>
<path d="M11.7067 7.81576L11.3077 9.09151C11.2889 9.15238 11.2846 9.21684 11.2953 9.27966C11.306 9.34248 11.3314 9.40188 11.3694 9.45304C11.4074 9.50419 11.457 9.54566 11.514 9.57406C11.5711 9.60247 11.634 9.61701 11.6977 9.61651H12.2887C12.3525 9.61701 12.4154 9.60247 12.4725 9.57406C12.5295 9.54566 12.579 9.50419 12.617 9.45304C12.655 9.40188 12.6804 9.34248 12.6912 9.27966C12.7019 9.21684 12.6976 9.15238 12.6787 9.09151L12.2805 7.81576C12.195 7.53301 11.796 7.53301 11.7067 7.81576V7.81576Z" fill="url(#paint42_linear_31_6016)"/>
<path d="M11.7067 7.81576L11.3077 9.09151C11.2889 9.15238 11.2846 9.21684 11.2953 9.27966C11.306 9.34248 11.3314 9.40188 11.3694 9.45304C11.4074 9.50419 11.457 9.54566 11.514 9.57406C11.5711 9.60247 11.634 9.61701 11.6977 9.61651H12.2887C12.3525 9.61701 12.4154 9.60247 12.4725 9.57406C12.5295 9.54566 12.579 9.50419 12.617 9.45304C12.655 9.40188 12.6804 9.34248 12.6912 9.27966C12.7019 9.21684 12.6976 9.15238 12.6787 9.09151L12.2805 7.81576C12.195 7.53301 11.796 7.53301 11.7067 7.81576V7.81576Z" fill="url(#paint43_linear_31_6016)"/>
<path d="M11.7067 7.81576L11.3077 9.09151C11.2889 9.15238 11.2846 9.21684 11.2953 9.27966C11.306 9.34248 11.3314 9.40188 11.3694 9.45304C11.4074 9.50419 11.457 9.54566 11.514 9.57406C11.5711 9.60247 11.634 9.61701 11.6977 9.61651H12.2887C12.3525 9.61701 12.4154 9.60247 12.4725 9.57406C12.5295 9.54566 12.579 9.50419 12.617 9.45304C12.655 9.40188 12.6804 9.34248 12.6912 9.27966C12.7019 9.21684 12.6976 9.15238 12.6787 9.09151L12.2805 7.81576C12.195 7.53301 11.796 7.53301 11.7067 7.81576V7.81576Z" fill="url(#paint44_radial_31_6016)"/>
<path d="M10.971 10.0995C11.2665 10.254 11.6183 10.3425 11.9933 10.3425C12.3728 10.3425 12.7208 10.254 13.0163 10.1003C13.0456 10.0848 13.0792 10.0793 13.1119 10.0846C13.1446 10.0899 13.1748 10.1056 13.1978 10.1295C13.221 10.1533 13.2353 10.1844 13.238 10.2176C13.2408 10.2507 13.2318 10.2838 13.2128 10.311M10.971 10.1003L13.182 10.29ZM10.971 10.0995C10.9415 10.0842 10.9077 10.079 10.875 10.0847C10.8422 10.0904 10.8122 10.1067 10.7895 10.131C10.7662 10.1544 10.7519 10.1853 10.7492 10.2183C10.7464 10.2512 10.7554 10.2841 10.7745 10.311M10.971 10.1003L10.8053 10.29ZM13.2128 10.311L13.182 10.29ZM13.2128 10.311L13.182 10.29ZM13.2128 10.311C13.0793 10.512 12.898 10.6768 12.6851 10.7906C12.4723 10.9043 12.2346 10.9635 11.9933 10.9628C11.7519 10.9634 11.5141 10.9041 11.3013 10.7902C11.0884 10.6764 10.9072 10.5114 10.7738 10.3103M13.1813 10.29C13.0514 10.486 12.8748 10.6466 12.6674 10.7574C12.46 10.8681 12.2284 10.9256 11.9933 10.9245C11.7582 10.9254 11.5266 10.8678 11.3192 10.7571C11.1119 10.6464 10.9353 10.4859 10.8053 10.29M10.7738 10.311L10.8053 10.29ZM10.7738 10.311L10.8053 10.29Z" fill="#88014F"/>
<path d="M10.971 10.0995C11.2665 10.254 11.6183 10.3425 11.9933 10.3425C12.3728 10.3425 12.7208 10.254 13.0163 10.1003C13.0456 10.0848 13.0792 10.0793 13.1119 10.0846C13.1446 10.0899 13.1748 10.1056 13.1978 10.1295C13.221 10.1533 13.2353 10.1844 13.238 10.2176C13.2408 10.2507 13.2318 10.2838 13.2128 10.311M10.971 10.1003L13.182 10.29M10.971 10.0995C10.9415 10.0842 10.9077 10.079 10.875 10.0847C10.8422 10.0904 10.8122 10.1067 10.7895 10.131C10.7662 10.1544 10.7519 10.1853 10.7492 10.2183C10.7464 10.2512 10.7554 10.2841 10.7745 10.311M10.971 10.1003L10.8053 10.29M13.2128 10.311L13.182 10.29M13.2128 10.311L13.182 10.29M13.2128 10.311C13.0793 10.512 12.898 10.6768 12.6851 10.7906C12.4723 10.9043 12.2346 10.9635 11.9933 10.9628C11.7519 10.9634 11.5141 10.9041 11.3013 10.7902C11.0884 10.6764 10.9072 10.5114 10.7738 10.3103M13.1813 10.29C13.0514 10.486 12.8748 10.6466 12.6674 10.7574C12.46 10.8681 12.2284 10.9256 11.9933 10.9245C11.7582 10.9254 11.5266 10.8678 11.3192 10.7571C11.1119 10.6464 10.9353 10.4859 10.8053 10.29M10.7738 10.311L10.8053 10.29M10.7738 10.311L10.8053 10.29" stroke="url(#paint45_linear_31_6016)" stroke-width="0.075"/>
<path d="M13.7857 6.95624C14.2762 6.95624 14.6902 7.29374 14.8027 7.75124C14.8103 7.78165 14.8108 7.81338 14.8042 7.84401C14.7976 7.87464 14.7841 7.90335 14.7647 7.92796C14.7453 7.95256 14.7205 7.97241 14.6923 7.98598C14.664 7.99954 14.6331 8.00647 14.6017 8.00624H12.9277C12.9023 8.00645 12.8771 8.00102 12.854 7.99036C12.8309 7.97969 12.8105 7.96405 12.7941 7.94456C12.7778 7.92506 12.766 7.90219 12.7595 7.87759C12.753 7.85298 12.7521 7.82725 12.7567 7.80224C12.8038 7.5639 12.9321 7.34928 13.1198 7.195C13.3074 7.04071 13.5428 6.95632 13.7857 6.95624Z" fill="white"/>
<path d="M13.6305 7.16024C13.7334 7.16041 13.8348 7.18429 13.927 7.23002C14.0192 7.27575 14.0996 7.3421 14.162 7.42392C14.2243 7.50574 14.267 7.60083 14.2867 7.70182C14.3064 7.80281 14.3026 7.90697 14.2755 8.00624H12.9825C12.9558 7.90666 12.9524 7.80228 12.9725 7.70117C12.9926 7.60006 13.0356 7.50491 13.0983 7.42308C13.161 7.34125 13.2417 7.27492 13.3341 7.22922C13.4265 7.18351 13.5281 7.15965 13.6312 7.15948L13.6305 7.16024Z" fill="url(#paint46_radial_31_6016)"/>
<path d="M13.2472 7.82999C13.247 7.77957 13.2568 7.72961 13.276 7.68298C13.2952 7.63635 13.3234 7.59397 13.359 7.55829C13.3946 7.5226 13.437 7.49431 13.4835 7.47503C13.5301 7.45576 13.5801 7.44589 13.6305 7.44599C13.6966 7.44555 13.7616 7.46222 13.8193 7.49438C13.877 7.52654 13.9254 7.57309 13.9597 7.62951C13.9941 7.68592 14.0133 7.75027 14.0154 7.81629C14.0175 7.88231 14.0024 7.94775 13.9717 8.00624H13.293C13.2623 7.95262 13.2465 7.89177 13.2472 7.82999V7.82999Z" fill="black"/>
<g filter="url(#filter13_f_31_6016)">
<path d="M13.5818 7.30128C13.629 7.36503 13.5293 7.44378 13.416 7.52778C13.3028 7.61253 13.2188 7.67253 13.1708 7.60878C13.1228 7.54503 13.176 7.42428 13.29 7.33953C13.4025 7.25478 13.5338 7.23753 13.5818 7.30203V7.30128Z" fill="#C7A7A3"/>
<path d="M13.5818 7.30128C13.629 7.36503 13.5293 7.44378 13.416 7.52778C13.3028 7.61253 13.2188 7.67253 13.1708 7.60878C13.1228 7.54503 13.176 7.42428 13.29 7.33953C13.4025 7.25478 13.5338 7.23753 13.5818 7.30203V7.30128Z" fill="url(#paint47_radial_31_6016)"/>
</g>
<g filter="url(#filter14_f_31_6016)">
<path d="M14.2275 7.74154C14.2075 7.61035 14.1466 7.48882 14.0535 7.39429L13.8585 7.60804L13.947 7.77979L14.2275 7.74154V7.74154Z" fill="url(#paint48_linear_31_6016)"/>
</g>
<path d="M10.197 6.95551C9.70648 6.95551 9.29248 7.29375 9.17998 7.75051C9.17229 7.78096 9.1717 7.81278 9.17823 7.8435C9.18476 7.87423 9.19825 7.90305 9.21766 7.92775C9.23708 7.95244 9.26189 7.97236 9.2902 7.98597C9.31851 7.99958 9.34957 8.00652 9.38098 8.00626H11.0557C11.0811 8.00635 11.1062 8.00085 11.1292 7.99014C11.1522 7.97942 11.1726 7.96377 11.1888 7.94428C11.2051 7.9248 11.2168 7.90197 11.2233 7.87742C11.2297 7.85287 11.2306 7.82721 11.226 7.80226C11.1787 7.56397 11.0503 7.34942 10.8627 7.19506C10.6752 7.0407 10.4399 6.95605 10.197 6.95551V6.95551Z" fill="white"/>
<path d="M10.3522 7.16028C10.2493 7.16045 10.1479 7.18433 10.0557 7.23006C9.96354 7.27579 9.88315 7.34214 9.82076 7.42396C9.75838 7.50578 9.71569 7.60087 9.696 7.70186C9.67631 7.80285 9.68016 7.90702 9.70723 8.00628H11.001C11.0166 7.94882 11.0247 7.88957 11.025 7.83003C11.0236 7.65231 10.9522 7.4823 10.8262 7.35691C10.7003 7.23152 10.53 7.16087 10.3522 7.16028Z" fill="url(#paint49_radial_31_6016)"/>
<path d="M10.7362 7.82999C10.7364 7.77951 10.7266 7.72949 10.7074 7.68281C10.6882 7.63613 10.6599 7.59372 10.6242 7.55802C10.5885 7.52232 10.5461 7.49405 10.4994 7.47482C10.4527 7.45559 10.4027 7.44579 10.3522 7.44599C10.2862 7.44555 10.2211 7.46222 10.1634 7.49438C10.1057 7.52654 10.0574 7.57309 10.023 7.62951C9.98863 7.68592 9.96946 7.75027 9.96736 7.81629C9.96525 7.88231 9.98028 7.94775 10.011 8.00624H10.6905C10.7195 7.952 10.735 7.89152 10.7355 7.82999H10.7362Z" fill="black"/>
<g filter="url(#filter15_f_31_6016)">
<path d="M10.9642 7.75125C10.9642 7.5345 10.788 7.3905 10.7407 7.34625L10.524 7.55625L10.6575 7.827L10.9642 7.75125V7.75125Z" fill="url(#paint50_linear_31_6016)"/>
</g>
<g filter="url(#filter16_f_31_6016)">
<path d="M10.2197 7.57658C10.3624 7.50095 10.4472 7.38119 10.4089 7.30909C10.3707 7.23698 10.2241 7.23983 10.0813 7.31546C9.93857 7.39109 9.85381 7.51085 9.89201 7.58295C9.93021 7.65506 10.0769 7.6522 10.2197 7.57658Z" fill="#C7A7A3" fill-opacity="0.9"/>
<path d="M10.2197 7.57658C10.3624 7.50095 10.4472 7.38119 10.4089 7.30909C10.3707 7.23698 10.2241 7.23983 10.0813 7.31546C9.93857 7.39109 9.85381 7.51085 9.89201 7.58295C9.93021 7.65506 10.0769 7.6522 10.2197 7.57658Z" fill="url(#paint51_radial_31_6016)"/>
</g>
<g filter="url(#filter17_f_31_6016)">
<path d="M8.5905 4.41754V5.09254C8.5845 5.20354 8.538 5.45254 8.397 5.55904" stroke="url(#paint52_linear_31_6016)" stroke-width="0.1875" stroke-linecap="round"/>
</g>
<defs>
<filter id="filter0_f_31_6016" x="2.3205" y="11.9505" width="19.359" height="10.6642" filterUnits="userSpaceOnUse" color-interpolation-filters="sRGB">
<feFlood flood-opacity="0" result="BackgroundImageFix"/>
<feBlend mode="normal" in="SourceGraphic" in2="BackgroundImageFix" result="shape"/>
<feGaussianBlur stdDeviation="0.09375" result="effect1_foregroundBlur_31_6016"/>
</filter>
<filter id="filter1_f_31_6016" x="8.24298" y="16.7753" width="6.82254" height="5.77954" filterUnits="userSpaceOnUse" color-interpolation-filters="sRGB">
<feFlood flood-opacity="0" result="BackgroundImageFix"/>
<feBlend mode="normal" in="SourceGraphic" in2="BackgroundImageFix" result="shape"/>
<feGaussianBlur stdDeviation="0.375" result="effect1_foregroundBlur_31_6016"/>
</filter>
<filter id="filter2_iii_31_6016" x="9.02254" y="17.0962" width="5.94293" height="4.82083" filterUnits="userSpaceOnUse" color-interpolation-filters="sRGB">
<feFlood flood-opacity="0" result="BackgroundImageFix"/>
<feBlend mode="normal" in="SourceGraphic" in2="BackgroundImageFix" result="shape"/>
<feColorMatrix in="SourceAlpha" type="matrix" values="0 0 0 0 0 0 0 0 0 0 0 0 0 0 0 0 0 0 127 0" result="hardAlpha"/>
<feOffset dx="-0.1125" dy="0.1125"/>
<feGaussianBlur stdDeviation="0.1125"/>
<feComposite in2="hardAlpha" operator="arithmetic" k2="-1" k3="1"/>
<feColorMatrix type="matrix" values="0 0 0 0 0.282353 0 0 0 0 0.670588 0 0 0 0 1 0 0 0 1 0"/>
<feBlend mode="normal" in2="shape" result="effect1_innerShadow_31_6016"/>
<feColorMatrix in="SourceAlpha" type="matrix" values="0 0 0 0 0 0 0 0 0 0 0 0 0 0 0 0 0 0 127 0" result="hardAlpha"/>
<feOffset dx="0.1125" dy="-0.1125"/>
<feGaussianBlur stdDeviation="0.225"/>
<feComposite in2="hardAlpha" operator="arithmetic" k2="-1" k3="1"/>
<feColorMatrix type="matrix" values="0 0 0 0 0.196078 0 0 0 0 0.407843 0 0 0 0 0.87451 0 0 0 1 0"/>
<feBlend mode="normal" in2="effect1_innerShadow_31_6016" result="effect2_innerShadow_31_6016"/>
<feColorMatrix in="SourceAlpha" type="matrix" values="0 0 0 0 0 0 0 0 0 0 0 0 0 0 0 0 0 0 127 0" result="hardAlpha"/>
<feOffset dx="0.0375" dy="-0.0375"/>
<feGaussianBlur stdDeviation="0.075"/>
<feComposite in2="hardAlpha" operator="arithmetic" k2="-1" k3="1"/>
<feColorMatrix type="matrix" values="0 0 0 0 0.164706 0 0 0 0 0.317647 0 0 0 0 0.886275 0 0 0 1 0"/>
<feBlend mode="normal" in2="effect2_innerShadow_31_6016" result="effect3_innerShadow_31_6016"/>
</filter>
<filter id="filter3_f_31_6016" x="10.62" y="13.992" width="2.32199" height="2.33252" filterUnits="userSpaceOnUse" color-interpolation-filters="sRGB">
<feFlood flood-opacity="0" result="BackgroundImageFix"/>
<feBlend mode="normal" in="SourceGraphic" in2="BackgroundImageFix" result="shape"/>
<feGaussianBlur stdDeviation="0.1875" result="effect1_foregroundBlur_31_6016"/>
</filter>
<filter id="filter4_i_31_6016" x="7.71674" y="11.6685" width="8.7045" height="3.61875" filterUnits="userSpaceOnUse" color-interpolation-filters="sRGB">
<feFlood flood-opacity="0" result="BackgroundImageFix"/>
<feBlend mode="normal" in="SourceGraphic" in2="BackgroundImageFix" result="shape"/>
<feColorMatrix in="SourceAlpha" type="matrix" values="0 0 0 0 0 0 0 0 0 0 0 0 0 0 0 0 0 0 127 0" result="hardAlpha"/>
<feOffset dx="0.15" dy="-0.1875"/>
<feGaussianBlur stdDeviation="0.075"/>
<feComposite in2="hardAlpha" operator="arithmetic" k2="-1" k3="1"/>
<feColorMatrix type="matrix" values="0 0 0 0 0.803922 0 0 0 0 0.223529 0 0 0 0 0.533333 0 0 0 1 0"/>
<feBlend mode="normal" in2="shape" result="effect1_innerShadow_31_6016"/>
</filter>
<filter id="filter5_i_31_6016" x="7.17599" y="6.77704" width="2.6565" height="2.50647" filterUnits="userSpaceOnUse" color-interpolation-filters="sRGB">
<feFlood flood-opacity="0" result="BackgroundImageFix"/>
<feBlend mode="normal" in="SourceGraphic" in2="BackgroundImageFix" result="shape"/>
<feColorMatrix in="SourceAlpha" type="matrix" values="0 0 0 0 0 0 0 0 0 0 0 0 0 0 0 0 0 0 127 0" result="hardAlpha"/>
<feOffset dx="0.15"/>
<feGaussianBlur stdDeviation="0.1125"/>
<feComposite in2="hardAlpha" operator="arithmetic" k2="-1" k3="1"/>
<feColorMatrix type="matrix" values="0 0 0 0 0.517647 0 0 0 0 0.384314 0 0 0 0 0.34902 0 0 0 1 0"/>
<feBlend mode="normal" in2="shape" result="effect1_innerShadow_31_6016"/>
</filter>
<filter id="filter6_f_31_6016" x="7.30725" y="6.90826" width="2.24399" height="2.24402" filterUnits="userSpaceOnUse" color-interpolation-filters="sRGB">
<feFlood flood-opacity="0" result="BackgroundImageFix"/>
<feBlend mode="normal" in="SourceGraphic" in2="BackgroundImageFix" result="shape"/>
<feGaussianBlur stdDeviation="0.1875" result="effect1_foregroundBlur_31_6016"/>
</filter>
<filter id="filter7_i_31_6016" x="14.3175" y="6.58954" width="2.694" height="2.69397" filterUnits="userSpaceOnUse" color-interpolation-filters="sRGB">
<feFlood flood-opacity="0" result="BackgroundImageFix"/>
<feBlend mode="normal" in="SourceGraphic" in2="BackgroundImageFix" result="shape"/>
<feColorMatrix in="SourceAlpha" type="matrix" values="0 0 0 0 0 0 0 0 0 0 0 0 0 0 0 0 0 0 127 0" result="hardAlpha"/>
<feOffset dx="0.1875" dy="-0.1875"/>
<feGaussianBlur stdDeviation="0.1875"/>
<feComposite in2="hardAlpha" operator="arithmetic" k2="-1" k3="1"/>
<feColorMatrix type="matrix" values="0 0 0 0 0.482353 0 0 0 0 0.278431 0 0 0 0 0.372549 0 0 0 1 0"/>
<feBlend mode="normal" in2="shape" result="effect1_innerShadow_31_6016"/>
</filter>
<filter id="filter8_f_31_6016" x="14.4487" y="6.90826" width="2.24399" height="2.24402" filterUnits="userSpaceOnUse" color-interpolation-filters="sRGB">
<feFlood flood-opacity="0" result="BackgroundImageFix"/>
<feBlend mode="normal" in="SourceGraphic" in2="BackgroundImageFix" result="shape"/>
<feGaussianBlur stdDeviation="0.1875" result="effect1_foregroundBlur_31_6016"/>
</filter>
<filter id="filter9_i_31_6016" x="8.121" y="3.80774" width="7.78793" height="9.14174" filterUnits="userSpaceOnUse" color-interpolation-filters="sRGB">
<feFlood flood-opacity="0" result="BackgroundImageFix"/>
<feBlend mode="normal" in="SourceGraphic" in2="BackgroundImageFix" result="shape"/>
<feColorMatrix in="SourceAlpha" type="matrix" values="0 0 0 0 0 0 0 0 0 0 0 0 0 0 0 0 0 0 127 0" result="hardAlpha"/>
<feOffset dy="0.1125"/>
<feGaussianBlur stdDeviation="0.09375"/>
<feComposite in2="hardAlpha" operator="arithmetic" k2="-1" k3="1"/>
<feColorMatrix type="matrix" values="0 0 0 0 0.254902 0 0 0 0 0.137255 0 0 0 0 0.113725 0 0 0 1 0"/>
<feBlend mode="normal" in2="shape" result="effect1_innerShadow_31_6016"/>
</filter>
<filter id="filter10_f_31_6016" x="10.6219" y="2.30774" width="6.1864" height="5.30188" filterUnits="userSpaceOnUse" color-interpolation-filters="sRGB">
<feFlood flood-opacity="0" result="BackgroundImageFix"/>
<feBlend mode="normal" in="SourceGraphic" in2="BackgroundImageFix" result="shape"/>
<feGaussianBlur stdDeviation="0.75" result="effect1_foregroundBlur_31_6016"/>
</filter>
<filter id="filter11_i_31_6016" x="7.26355" y="1.19781" width="9.46014" height="6.41321" filterUnits="userSpaceOnUse" color-interpolation-filters="sRGB">
<feFlood flood-opacity="0" result="BackgroundImageFix"/>
<feBlend mode="normal" in="SourceGraphic" in2="BackgroundImageFix" result="shape"/>
<feColorMatrix in="SourceAlpha" type="matrix" values="0 0 0 0 0 0 0 0 0 0 0 0 0 0 0 0 0 0 127 0" result="hardAlpha"/>
<feOffset dy="-0.375"/>
<feGaussianBlur stdDeviation="0.28125"/>
<feComposite in2="hardAlpha" operator="arithmetic" k2="-1" k3="1"/>
<feColorMatrix type="matrix" values="0 0 0 0 0.0392157 0 0 0 0 0.00784314 0 0 0 0 0.0196078 0 0 0 1 0"/>
<feBlend mode="normal" in2="shape" result="effect1_innerShadow_31_6016"/>
</filter>
<filter id="filter12_f_31_6016" x="10.5912" y="7.16345" width="2.44604" height="3.13855" filterUnits="userSpaceOnUse" color-interpolation-filters="sRGB">
<feFlood flood-opacity="0" result="BackgroundImageFix"/>
<feBlend mode="normal" in="SourceGraphic" in2="BackgroundImageFix" result="shape"/>
<feGaussianBlur stdDeviation="0.28125" result="effect1_foregroundBlur_31_6016"/>
</filter>
<filter id="filter13_f_31_6016" x="13.0781" y="7.18794" width="0.590674" height="0.522498" filterUnits="userSpaceOnUse" color-interpolation-filters="sRGB">
<feFlood flood-opacity="0" result="BackgroundImageFix"/>
<feBlend mode="normal" in="SourceGraphic" in2="BackgroundImageFix" result="shape"/>
<feGaussianBlur stdDeviation="0.0375" result="effect1_foregroundBlur_31_6016"/>
</filter>
<filter id="filter14_f_31_6016" x="13.7085" y="7.24429" width="0.668988" height="0.685498" filterUnits="userSpaceOnUse" color-interpolation-filters="sRGB">
<feFlood flood-opacity="0" result="BackgroundImageFix"/>
<feBlend mode="normal" in="SourceGraphic" in2="BackgroundImageFix" result="shape"/>
<feGaussianBlur stdDeviation="0.075" result="effect1_foregroundBlur_31_6016"/>
</filter>
<filter id="filter15_f_31_6016" x="10.374" y="7.19625" width="0.740247" height="0.780774" filterUnits="userSpaceOnUse" color-interpolation-filters="sRGB">
<feFlood flood-opacity="0" result="BackgroundImageFix"/>
<feBlend mode="normal" in="SourceGraphic" in2="BackgroundImageFix" result="shape"/>
<feGaussianBlur stdDeviation="0.075" result="effect1_foregroundBlur_31_6016"/>
</filter>
<filter id="filter16_f_31_6016" x="9.80784" y="7.18184" width="0.685278" height="0.528357" filterUnits="userSpaceOnUse" color-interpolation-filters="sRGB">
<feFlood flood-opacity="0" result="BackgroundImageFix"/>
<feBlend mode="normal" in="SourceGraphic" in2="BackgroundImageFix" result="shape"/>
<feGaussianBlur stdDeviation="0.0375" result="effect1_foregroundBlur_31_6016"/>
</filter>
<filter id="filter17_f_31_6016" x="8.11575" y="4.13629" width="0.756012" height="1.70398" filterUnits="userSpaceOnUse" color-interpolation-filters="sRGB">
<feFlood flood-opacity="0" result="BackgroundImageFix"/>
<feBlend mode="normal" in="SourceGraphic" in2="BackgroundImageFix" result="shape"/>
<feGaussianBlur stdDeviation="0.09375" result="effect1_foregroundBlur_31_6016"/>
</filter>
<radialGradient id="paint0_radial_31_6016" cx="0" cy="0" r="1" gradientUnits="userSpaceOnUse" gradientTransform="translate(12 13.74) rotate(90) scale(8.6868 15.6152)">
<stop offset="0.572" stop-color="#FF3B9A"/>
<stop offset="1" stop-color="#EE344D"/>
</radialGradient>
<radialGradient id="paint1_radial_31_6016" cx="0" cy="0" r="1" gradientUnits="userSpaceOnUse" gradientTransform="translate(8.24385 12.2406) rotate(124.924) scale(9.6618 9.09825)">
<stop stop-color="#BF2370"/>
<stop offset="1" stop-color="#BF2370" stop-opacity="0"/>
</radialGradient>
<linearGradient id="paint2_linear_31_6016" x1="12" y1="12.138" x2="12" y2="22.7167" gradientUnits="userSpaceOnUse">
<stop offset="0.866" stop-color="#790B2C"/>
<stop offset="1" stop-color="#790B2C" stop-opacity="0"/>
</linearGradient>
<radialGradient id="paint3_radial_31_6016" cx="0" cy="0" r="1" gradientUnits="userSpaceOnUse" gradientTransform="translate(16.5637 14.3972) rotate(123.174) scale(8.65237 9.15623)">
<stop stop-color="#4690E6"/>
<stop offset="1" stop-color="#3E75E1"/>
</radialGradient>
<radialGradient id="paint4_radial_31_6016" cx="0" cy="0" r="1" gradientUnits="userSpaceOnUse" gradientTransform="translate(10.0958 12.6162) rotate(100.184) scale(3.97672 5.7401)">
<stop offset="0.231" stop-color="#3062AC"/>
<stop offset="1" stop-color="#3A7AD3" stop-opacity="0"/>
</radialGradient>
<linearGradient id="paint5_linear_31_6016" x1="20.244" y1="22.6463" x2="20.0797" y2="20.5838" gradientUnits="userSpaceOnUse">
<stop stop-color="#4D87F8"/>
<stop offset="1" stop-color="#4B99FF" stop-opacity="0"/>
</linearGradient>
<radialGradient id="paint6_radial_31_6016" cx="0" cy="0" r="1" gradientUnits="userSpaceOnUse" gradientTransform="translate(17.385 22.1775) scale(4.07813 10.8899)">
<stop offset="0.698" stop-color="#528ADB" stop-opacity="0"/>
<stop offset="1" stop-color="#528ADB"/>
</radialGradient>
<radialGradient id="paint7_radial_31_6016" cx="0" cy="0" r="1" gradientUnits="userSpaceOnUse" gradientTransform="translate(17.76 22.4273) rotate(-90) scale(9.88215 0.16443)">
<stop offset="0.21" stop-color="#286ADF"/>
<stop offset="1" stop-color="#286ADF" stop-opacity="0"/>
</radialGradient>
<linearGradient id="paint8_linear_31_6016" x1="6.43949" y1="18.8265" x2="4.00199" y2="18.8265" gradientUnits="userSpaceOnUse">
<stop offset="0.183" stop-color="#3E80F0"/>
<stop offset="1" stop-color="#3E77D8"/>
</linearGradient>
<radialGradient id="paint9_radial_31_6016" cx="0" cy="0" r="1" gradientUnits="userSpaceOnUse" gradientTransform="translate(7.16624 22.2953) rotate(180) scale(4.26563 10.0078)">
<stop offset="0.813" stop-color="#407DBE" stop-opacity="0"/>
<stop offset="1" stop-color="#407DBE"/>
</radialGradient>
<radialGradient id="paint10_radial_31_6016" cx="0" cy="0" r="1" gradientUnits="userSpaceOnUse" gradientTransform="translate(4.28249 22.4273) rotate(-84.8715) scale(1.17982 4.10645)">
<stop stop-color="#3D71ED"/>
<stop offset="1" stop-color="#3D71ED" stop-opacity="0"/>
</radialGradient>
<radialGradient id="paint11_radial_31_6016" cx="0" cy="0" r="1" gradientUnits="userSpaceOnUse" gradientTransform="translate(6.28724 22.4273) rotate(180) scale(0.158205 11.3288)">
<stop stop-color="#2154CA"/>
<stop offset="1" stop-color="#2154CA" stop-opacity="0"/>
</radialGradient>
<linearGradient id="paint12_linear_31_6016" x1="13.9162" y1="17.9355" x2="10.3537" y2="20.4435" gradientUnits="userSpaceOnUse">
<stop stop-color="#47A1FF"/>
<stop offset="1" stop-color="#3F83F1"/>
</linearGradient>
<linearGradient id="paint13_linear_31_6016" x1="11.994" y1="17.1037" x2="11.994" y2="18.1117" gradientUnits="userSpaceOnUse">
<stop stop-color="#40A0F8"/>
<stop offset="1" stop-color="#4392F9" stop-opacity="0"/>
</linearGradient>
<radialGradient id="paint14_radial_31_6016" cx="0" cy="0" r="1" gradientUnits="userSpaceOnUse" gradientTransform="translate(14.7832 17.514) rotate(142.125) scale(0.668066 0.828178)">
<stop offset="0.073" stop-color="#53B7FF"/>
<stop offset="1" stop-color="#49A3FF" stop-opacity="0"/>
</radialGradient>
<linearGradient id="paint15_linear_31_6016" x1="11.0797" y1="14.256" x2="15.0877" y2="12.8265" gradientUnits="userSpaceOnUse">
<stop stop-color="#CE1F66"/>
<stop offset="1" stop-color="#FF3656"/>
</linearGradient>
<radialGradient id="paint16_radial_31_6016" cx="0" cy="0" r="1" gradientUnits="userSpaceOnUse" gradientTransform="translate(10.7752 11.9588) rotate(180) scale(2.85938 2.75215)">
<stop offset="0.205" stop-color="#C31852"/>
<stop offset="1" stop-color="#C31852" stop-opacity="0"/>
</radialGradient>
<radialGradient id="paint17_radial_31_6016" cx="0" cy="0" r="1" gradientUnits="userSpaceOnUse" gradientTransform="translate(15.5565 11.4675) rotate(90) scale(1.14844 2.25)">
<stop offset="0.184" stop-color="#F04451"/>
<stop offset="1" stop-color="#F04451" stop-opacity="0"/>
</radialGradient>
<radialGradient id="paint18_radial_31_6016" cx="0" cy="0" r="1" gradientUnits="userSpaceOnUse" gradientTransform="translate(12.5328 14.5366) rotate(126.363) scale(1.32427 1.46149)">
<stop stop-color="#FFF14E"/>
<stop offset="1" stop-color="#F2BB43"/>
</radialGradient>
<radialGradient id="paint19_radial_31_6016" cx="0" cy="0" r="1" gradientUnits="userSpaceOnUse" gradientTransform="translate(12.2753 14.7716) rotate(111.306) scale(1.25784 1.57926)">
<stop offset="0.511" stop-color="#F6C546" stop-opacity="0"/>
<stop offset="1" stop-color="#D79D4A"/>
</radialGradient>
<radialGradient id="paint20_radial_31_6016" cx="0" cy="0" r="1" gradientUnits="userSpaceOnUse" gradientTransform="translate(11.7825 12.639) rotate(55.1214) scale(1.63945 2.35197)">
<stop offset="0.352" stop-color="#713C53"/>
<stop offset="1" stop-color="#895956"/>
</radialGradient>
<radialGradient id="paint21_radial_31_6016" cx="0" cy="0" r="1" gradientUnits="userSpaceOnUse" gradientTransform="translate(12.4395 12.8025) rotate(167.506) scale(2.11253 2.60973)">
<stop offset="0.555" stop-color="#5C2F30" stop-opacity="0"/>
<stop offset="1" stop-color="#5C2F30"/>
</radialGradient>
<radialGradient id="paint22_radial_31_6016" cx="0" cy="0" r="1" gradientUnits="userSpaceOnUse" gradientTransform="translate(7.17599 8.03029) scale(1.31739 2.30545)">
<stop offset="0.351" stop-color="#664249"/>
<stop offset="1" stop-color="#613641"/>
</radialGradient>
<linearGradient id="paint23_linear_31_6016" x1="8.42925" y1="8.23951" x2="7.9485" y2="8.23951" gradientUnits="userSpaceOnUse">
<stop stop-color="#553038"/>
<stop offset="1" stop-color="#59323C"/>
</linearGradient>
<linearGradient id="paint24_linear_31_6016" x1="16.3868" y1="7.21054" x2="15.7718" y2="9.11479" gradientUnits="userSpaceOnUse">
<stop stop-color="#96776B"/>
<stop offset="1" stop-color="#855A5B"/>
</linearGradient>
<radialGradient id="paint25_radial_31_6016" cx="0" cy="0" r="1" gradientUnits="userSpaceOnUse" gradientTransform="translate(15.8505 7.83079) rotate(-36.0607) scale(0.767707 0.876243)">
<stop offset="0.543" stop-color="#7C524C"/>
<stop offset="1" stop-color="#7C524C" stop-opacity="0"/>
</radialGradient>
<radialGradient id="paint26_radial_31_6016" cx="0" cy="0" r="1" gradientUnits="userSpaceOnUse" gradientTransform="translate(15.54 8.64676) rotate(-61.4674) scale(1.29074 0.755474)">
<stop offset="0.755" stop-color="#73443E" stop-opacity="0"/>
<stop offset="0.916" stop-color="#73443E"/>
</radialGradient>
<radialGradient id="paint27_radial_31_6016" cx="0" cy="0" r="1" gradientUnits="userSpaceOnUse" gradientTransform="translate(15.5707 8.02951) rotate(44.7082) scale(0.273882 0.353072)">
<stop stop-color="#6C443E"/>
<stop offset="1" stop-color="#6C443E" stop-opacity="0"/>
</radialGradient>
<linearGradient id="paint28_linear_31_6016" x1="15.0233" y1="8.32199" x2="9.29025" y2="9.17699" gradientUnits="userSpaceOnUse">
<stop stop-color="#9B6C5E"/>
<stop offset="1" stop-color="#744D4A"/>
</linearGradient>
<radialGradient id="paint29_radial_31_6016" cx="0" cy="0" r="1" gradientUnits="userSpaceOnUse" gradientTransform="translate(13.755 7.07549) rotate(-90) scale(0.98124 1.20767)">
<stop stop-color="#855354"/>
<stop offset="1" stop-color="#855354" stop-opacity="0"/>
</radialGradient>
<radialGradient id="paint30_radial_31_6016" cx="0" cy="0" r="1" gradientUnits="userSpaceOnUse" gradientTransform="translate(10.3328 7.17599) rotate(-90) scale(1.03156 1.28283)">
<stop stop-color="#6F414D"/>
<stop offset="1" stop-color="#6F414D" stop-opacity="0"/>
</radialGradient>
<linearGradient id="paint31_linear_31_6016" x1="7.9425" y1="10.3462" x2="9.35475" y2="10.296" gradientUnits="userSpaceOnUse">
<stop stop-color="#84615A"/>
<stop offset="1" stop-color="#84615A" stop-opacity="0"/>
</linearGradient>
<linearGradient id="paint32_linear_31_6016" x1="15.645" y1="9.71699" x2="14.8523" y2="9.64199" gradientUnits="userSpaceOnUse">
<stop stop-color="#966D5F"/>
<stop offset="1" stop-color="#966D5F" stop-opacity="0"/>
</linearGradient>
<radialGradient id="paint33_radial_31_6016" cx="0" cy="0" r="1" gradientUnits="userSpaceOnUse" gradientTransform="translate(11.7675 6.69749) rotate(90) scale(6.64117 9.01508)">
<stop offset="0.619" stop-color="#714250" stop-opacity="0"/>
<stop offset="0.923" stop-color="#5F3E52"/>
</radialGradient>
<linearGradient id="paint34_linear_31_6016" x1="15.3472" y1="7.98003" x2="9.74174" y2="7.98003" gradientUnits="userSpaceOnUse">
<stop stop-color="#FF1781"/>
<stop offset="1" stop-color="#C31251"/>
</linearGradient>
<linearGradient id="paint35_linear_31_6016" x1="8.14499" y1="7.74378" x2="9.24524" y2="7.74378" gradientUnits="userSpaceOnUse">
<stop stop-color="#AB2D46"/>
<stop offset="1" stop-color="#BA3950" stop-opacity="0"/>
</linearGradient>
<linearGradient id="paint36_linear_31_6016" x1="11.5942" y1="6.08174" x2="17.7082" y2="3.89249" gradientUnits="userSpaceOnUse">
<stop offset="0.109" stop-color="#A47F73"/>
<stop offset="1" stop-color="#A27B71" stop-opacity="0"/>
</linearGradient>
<radialGradient id="paint37_radial_31_6016" cx="0" cy="0" r="1" gradientUnits="userSpaceOnUse" gradientTransform="translate(15.255 4.94701) rotate(-74.899) scale(2.29895 1.10694)">
<stop offset="0.372" stop-color="#3D3437"/>
<stop offset="1" stop-color="#3D3437" stop-opacity="0"/>
</radialGradient>
<radialGradient id="paint38_radial_31_6016" cx="0" cy="0" r="1" gradientUnits="userSpaceOnUse" gradientTransform="translate(14.0227 3.62626) rotate(5.25779) scale(2.88347 1.55042)">
<stop offset="0.32" stop-color="#46383D"/>
<stop offset="1" stop-color="#46383D" stop-opacity="0"/>
</radialGradient>
<radialGradient id="paint39_radial_31_6016" cx="0" cy="0" r="1" gradientUnits="userSpaceOnUse" gradientTransform="translate(11.9932 1.57276) rotate(90) scale(1.26057 1.95227)">
<stop stop-color="#3E3034"/>
<stop offset="1" stop-color="#3E3034" stop-opacity="0"/>
</radialGradient>
<radialGradient id="paint40_radial_31_6016" cx="0" cy="0" r="1" gradientUnits="userSpaceOnUse" gradientTransform="translate(7.15198 6.69151) rotate(-36.235) scale(2.86095 4.48217)">
<stop stop-color="#453938"/>
<stop offset="1" stop-color="#453938" stop-opacity="0"/>
</radialGradient>
<linearGradient id="paint41_linear_31_6016" x1="11.3445" y1="8.81701" x2="12.0487" y2="8.81701" gradientUnits="userSpaceOnUse">
<stop stop-color="#754E46"/>
<stop offset="1" stop-color="#754E46" stop-opacity="0"/>
</linearGradient>
<linearGradient id="paint42_linear_31_6016" x1="12.6982" y1="9.05926" x2="11.928" y2="9.04801" gradientUnits="userSpaceOnUse">
<stop stop-color="#9D766B"/>
<stop offset="1" stop-color="#9D766B" stop-opacity="0"/>
</linearGradient>
<linearGradient id="paint43_linear_31_6016" x1="12.1395" y1="9.61651" x2="12.1395" y2="9.18601" gradientUnits="userSpaceOnUse">
<stop stop-color="#7C4559"/>
<stop offset="1" stop-color="#7C4559" stop-opacity="0"/>
</linearGradient>
<radialGradient id="paint44_radial_31_6016" cx="0" cy="0" r="1" gradientUnits="userSpaceOnUse" gradientTransform="translate(12.2392 9.23626) rotate(90) scale(0.147817 0.4749)">
<stop stop-color="#976F6A"/>
<stop offset="1" stop-color="#976F6A" stop-opacity="0"/>
</radialGradient>
<linearGradient id="paint45_linear_31_6016" x1="11.2148" y1="10.8293" x2="11.5418" y2="10.3133" gradientUnits="userSpaceOnUse">
<stop stop-color="#865E63"/>
<stop offset="0.663" stop-color="#865E63" stop-opacity="0"/>
</linearGradient>
<radialGradient id="paint46_radial_31_6016" cx="0" cy="0" r="1" gradientUnits="userSpaceOnUse" gradientTransform="translate(13.629 7.51799) rotate(90) scale(0.608925 0.968566)">
<stop offset="0.802" stop-color="#7D574A"/>
<stop offset="1" stop-color="#664944"/>
</radialGradient>
<radialGradient id="paint47_radial_31_6016" cx="0" cy="0" r="1" gradientUnits="userSpaceOnUse" gradientTransform="translate(13.4573 7.58103) rotate(-127.812) scale(0.283916 0.390886)">
<stop offset="0.766" stop-color="#FFE6E2" stop-opacity="0"/>
<stop offset="0.966" stop-color="#FFE6E2"/>
</radialGradient>
<linearGradient id="paint48_linear_31_6016" x1="14.2132" y1="7.55854" x2="13.9777" y2="7.70329" gradientUnits="userSpaceOnUse">
<stop stop-color="#B4948D"/>
<stop offset="1" stop-color="#B4948D" stop-opacity="0"/>
</linearGradient>
<radialGradient id="paint49_radial_31_6016" cx="0" cy="0" r="1" gradientUnits="userSpaceOnUse" gradientTransform="translate(10.3537 7.51803) rotate(90) scale(0.608955 0.96861)">
<stop offset="0.802" stop-color="#7D574A"/>
<stop offset="1" stop-color="#664944"/>
</radialGradient>
<linearGradient id="paint50_linear_31_6016" x1="10.9117" y1="7.5585" x2="10.6762" y2="7.70325" gradientUnits="userSpaceOnUse">
<stop stop-color="#B4948D"/>
<stop offset="1" stop-color="#B4948D" stop-opacity="0"/>
</linearGradient>
<radialGradient id="paint51_radial_31_6016" cx="0" cy="0" r="1" gradientUnits="userSpaceOnUse" gradientTransform="translate(10.2507 7.65991) rotate(-118.811) scale(0.370875 0.4458)">
<stop offset="0.766" stop-color="#FFE6E2" stop-opacity="0"/>
<stop offset="0.966" stop-color="#FFE6E2"/>
</radialGradient>
<linearGradient id="paint52_linear_31_6016" x1="8.49375" y1="4.34404" x2="8.49375" y2="5.96329" gradientUnits="userSpaceOnUse">
<stop offset="0.228" stop-color="#32272D"/>
<stop offset="1" stop-color="#32272D" stop-opacity="0"/>
</linearGradient>
</defs>
</svg>
