<svg width="24" height="24" viewBox="0 0 24 24" fill="none" xmlns="http://www.w3.org/2000/svg">
<path d="M20 4H4C2.9 4 2 4.9 2 6V18C2 19.1 2.9 20 4 20H20C21.1 20 22 19.1 22 18V6C22 4.9 21.1 4 20 4ZM9.5 14.67V9.33C9.5 8.54 10.38 8.06 11.04 8.49L15.19 11.16C15.3303 11.2507 15.4457 11.375 15.5256 11.5218C15.6055 11.6685 15.6474 11.8329 15.6474 12C15.6474 12.1671 15.6055 12.3315 15.5256 12.4782C15.4457 12.625 15.3303 12.7493 15.19 12.84L11.04 15.51C10.38 15.94 9.5 15.46 9.5 14.67Z" fill="#E94560"/>
</svg>
