<svg width="25" height="24" viewBox="0 0 25 24" fill="none" xmlns="http://www.w3.org/2000/svg">
<path d="M7.39527 12.8421C6.93212 12.8421 6.55317 13.2211 6.55317 13.6842C6.55317 14.1474 6.93212 14.5263 7.39527 14.5263C7.85843 14.5263 8.23738 14.1474 8.23738 13.6842C8.23738 13.2211 7.85843 12.8421 7.39527 12.8421ZM7.39527 16.2105C6.93212 16.2105 6.55317 16.5895 6.55317 17.0526C6.55317 17.5158 6.93212 17.8947 7.39527 17.8947C7.85843 17.8947 8.23738 17.5158 8.23738 17.0526C8.23738 16.5895 7.85843 16.2105 7.39527 16.2105ZM7.39527 9.47368C6.93212 9.47368 6.55317 9.85263 6.55317 10.3158C6.55317 10.7789 6.93212 11.1579 7.39527 11.1579C7.85843 11.1579 8.23738 10.7789 8.23738 10.3158C8.23738 9.85263 7.85843 9.47368 7.39527 9.47368ZM4.86896 9.89474C4.63317 9.89474 4.44791 10.08 4.44791 10.3158C4.44791 10.5516 4.63317 10.7368 4.86896 10.7368C5.10475 10.7368 5.29001 10.5516 5.29001 10.3158C5.29001 10.08 5.10475 9.89474 4.86896 9.89474ZM7.39527 6.10526C6.93212 6.10526 6.55317 6.48421 6.55317 6.94737C6.55317 7.41053 6.93212 7.78947 7.39527 7.78947C7.85843 7.78947 8.23738 7.41053 8.23738 6.94737C8.23738 6.48421 7.85843 6.10526 7.39527 6.10526ZM20.0269 10.7368C20.2626 10.7368 20.4479 10.5516 20.4479 10.3158C20.4479 10.08 20.2626 9.89474 20.0269 9.89474C19.7911 9.89474 19.6058 10.08 19.6058 10.3158C19.6058 10.5516 19.7911 10.7368 20.0269 10.7368ZM14.1321 7.78947C14.5953 7.78947 14.9742 7.41053 14.9742 6.94737C14.9742 6.48421 14.5953 6.10526 14.1321 6.10526C13.669 6.10526 13.29 6.48421 13.29 6.94737C13.29 7.41053 13.669 7.78947 14.1321 7.78947ZM14.1321 4.84211C14.3679 4.84211 14.5532 4.65684 14.5532 4.42105C14.5532 4.18526 14.3679 4 14.1321 4C13.8963 4 13.7111 4.18526 13.7111 4.42105C13.7111 4.65684 13.8963 4.84211 14.1321 4.84211ZM4.86896 13.2632C4.63317 13.2632 4.44791 13.4484 4.44791 13.6842C4.44791 13.92 4.63317 14.1053 4.86896 14.1053C5.10475 14.1053 5.29001 13.92 5.29001 13.6842C5.29001 13.4484 5.10475 13.2632 4.86896 13.2632ZM10.7637 19.1579C10.5279 19.1579 10.3426 19.3432 10.3426 19.5789C10.3426 19.8147 10.5279 20 10.7637 20C10.9995 20 11.1847 19.8147 11.1847 19.5789C11.1847 19.3432 10.9995 19.1579 10.7637 19.1579ZM10.7637 4.84211C10.9995 4.84211 11.1847 4.65684 11.1847 4.42105C11.1847 4.18526 10.9995 4 10.7637 4C10.5279 4 10.3426 4.18526 10.3426 4.42105C10.3426 4.65684 10.5279 4.84211 10.7637 4.84211ZM10.7637 7.78947C11.2269 7.78947 11.6058 7.41053 11.6058 6.94737C11.6058 6.48421 11.2269 6.10526 10.7637 6.10526C10.3005 6.10526 9.92159 6.48421 9.92159 6.94737C9.92159 7.41053 10.3005 7.78947 10.7637 7.78947ZM10.7637 12.4211C10.0647 12.4211 9.50054 12.9853 9.50054 13.6842C9.50054 14.3832 10.0647 14.9474 10.7637 14.9474C11.4626 14.9474 12.0269 14.3832 12.0269 13.6842C12.0269 12.9853 11.4626 12.4211 10.7637 12.4211ZM17.5005 12.8421C17.0374 12.8421 16.6584 13.2211 16.6584 13.6842C16.6584 14.1474 17.0374 14.5263 17.5005 14.5263C17.9637 14.5263 18.3426 14.1474 18.3426 13.6842C18.3426 13.2211 17.9637 12.8421 17.5005 12.8421ZM17.5005 16.2105C17.0374 16.2105 16.6584 16.5895 16.6584 17.0526C16.6584 17.5158 17.0374 17.8947 17.5005 17.8947C17.9637 17.8947 18.3426 17.5158 18.3426 17.0526C18.3426 16.5895 17.9637 16.2105 17.5005 16.2105ZM17.5005 9.47368C17.0374 9.47368 16.6584 9.85263 16.6584 10.3158C16.6584 10.7789 17.0374 11.1579 17.5005 11.1579C17.9637 11.1579 18.3426 10.7789 18.3426 10.3158C18.3426 9.85263 17.9637 9.47368 17.5005 9.47368ZM17.5005 6.10526C17.0374 6.10526 16.6584 6.48421 16.6584 6.94737C16.6584 7.41053 17.0374 7.78947 17.5005 7.78947C17.9637 7.78947 18.3426 7.41053 18.3426 6.94737C18.3426 6.48421 17.9637 6.10526 17.5005 6.10526ZM20.0269 13.2632C19.7911 13.2632 19.6058 13.4484 19.6058 13.6842C19.6058 13.92 19.7911 14.1053 20.0269 14.1053C20.2626 14.1053 20.4479 13.92 20.4479 13.6842C20.4479 13.4484 20.2626 13.2632 20.0269 13.2632ZM14.1321 16.2105C13.669 16.2105 13.29 16.5895 13.29 17.0526C13.29 17.5158 13.669 17.8947 14.1321 17.8947C14.5953 17.8947 14.9742 17.5158 14.9742 17.0526C14.9742 16.5895 14.5953 16.2105 14.1321 16.2105ZM14.1321 19.1579C13.8963 19.1579 13.7111 19.3432 13.7111 19.5789C13.7111 19.8147 13.8963 20 14.1321 20C14.3679 20 14.5532 19.8147 14.5532 19.5789C14.5532 19.3432 14.3679 19.1579 14.1321 19.1579ZM10.7637 9.05263C10.0647 9.05263 9.50054 9.61684 9.50054 10.3158C9.50054 11.0147 10.0647 11.5789 10.7637 11.5789C11.4626 11.5789 12.0269 11.0147 12.0269 10.3158C12.0269 9.61684 11.4626 9.05263 10.7637 9.05263ZM10.7637 16.2105C10.3005 16.2105 9.92159 16.5895 9.92159 17.0526C9.92159 17.5158 10.3005 17.8947 10.7637 17.8947C11.2269 17.8947 11.6058 17.5158 11.6058 17.0526C11.6058 16.5895 11.2269 16.2105 10.7637 16.2105ZM14.1321 12.4211C13.4332 12.4211 12.869 12.9853 12.869 13.6842C12.869 14.3832 13.4332 14.9474 14.1321 14.9474C14.8311 14.9474 15.3953 14.3832 15.3953 13.6842C15.3953 12.9853 14.8311 12.4211 14.1321 12.4211ZM14.1321 9.05263C13.4332 9.05263 12.869 9.61684 12.869 10.3158C12.869 11.0147 13.4332 11.5789 14.1321 11.5789C14.8311 11.5789 15.3953 11.0147 15.3953 10.3158C15.3953 9.61684 14.8311 9.05263 14.1321 9.05263Z" fill="#E94560"/>
</svg>
