<svg width="24" height="24" viewBox="0 0 24 24" fill="none" xmlns="http://www.w3.org/2000/svg">
<path d="M5.05209 10H19.0521C19.6021 10 20.0521 10.45 20.0521 11C20.0521 11.55 19.6021 12 19.0521 12H5.05209C4.50209 12 4.05209 11.55 4.05209 11C4.05209 10.45 4.50209 10 5.05209 10ZM7.60419 14H16.1563C16.7063 14 17.1563 14.45 17.1563 15C17.1563 15.55 16.7063 16 16.1563 16H7.60419C7.05419 16 6.60419 15.55 6.60419 15C6.60419 14.45 7.05419 14 7.60419 14Z" fill="#E94560"/>
<line x1="10.0521" y1="7" x2="14.0521" y2="7" stroke="#E94560" stroke-width="2" stroke-linecap="round"/>
</svg>
