<svg width="256" height="256" viewBox="0 0 256 256" fill="none" xmlns="http://www.w3.org/2000/svg">
<path d="M230.2 163C231.14 164.174 231.73 165.588 231.902 167.082C232.075 168.575 231.823 170.087 231.176 171.444C230.529 172.801 229.512 173.948 228.243 174.754C226.974 175.56 225.503 175.992 224 176H48V216C48 218.122 47.1571 220.157 45.6569 221.657C44.1566 223.157 42.1217 224 40 224C37.8783 224 35.8434 223.157 34.3431 221.657C32.8429 220.157 32 218.122 32 216V48C32 45.8783 32.8429 43.8434 34.3431 42.3431C35.8434 40.8429 37.8783 40 40 40H224C225.503 40.0084 226.974 40.4403 228.243 41.2461C229.512 42.052 230.529 43.1991 231.176 44.5561C231.823 45.9131 232.075 47.4249 231.902 48.9184C231.73 50.4118 231.14 51.8264 230.2 53L186.2 108L230.2 163Z" fill="#E94560"/>
</svg>
