<svg width="24" height="24" viewBox="0 0 24 24" fill="none" xmlns="http://www.w3.org/2000/svg">
<path d="M13 5C15.21 5 17 6.79 17 9C17 10.5 16.2 11.77 15 12.46V11.24C15.61 10.69 16 9.89 16 9C16 7.34 14.66 6 13 6C11.34 6 10 7.34 10 9C10 9.89 10.39 10.69 11 11.24V12.46C9.8 11.77 9 10.5 9 9C9 6.79 10.79 5 13 5ZM20 20.5C19.97 21.32 19.32 21.97 18.5 22H13C12.62 22 12.26 21.85 12 21.57L8 17.37L8.74 16.6C8.93 16.39 9.2 16.28 9.5 16.28H9.7L12 18V9C12 8.45 12.45 8 13 8C13.55 8 14 8.45 14 9V13.47L15.21 13.6L19.15 15.79C19.68 16.03 20 16.56 20 17.14V20.5M20 2H4C2.9 2 2 2.9 2 4V12C2 12.5304 2.21071 13.0391 2.58579 13.4142C2.96086 13.7893 3.46957 14 4 14H8V12H4V4H20V12H18V14H20V13.96L20.04 14C21.13 14 22 13.09 22 12V4C22 3.46957 21.7893 2.96086 21.4142 2.58579C21.0391 2.21071 20.5304 2 20 2Z"  fill="#E94560"/>
</svg>
