<svg width="24" height="24" viewBox="0 0 24 24" fill="none" xmlns="http://www.w3.org/2000/svg">
<path d="M18.4941 16.7399L14.4897 20.7443C14.1487 21.0852 13.5891 21.0852 13.2481 20.7443C12.9072 20.4033 12.9072 19.8437 13.2481 19.5027L15.7662 16.9934H6.87432C6.39345 16.9934 6 16.6 6 16.1191V3.87432C6 3.39345 6.39345 3 6.87432 3C7.3552 3 7.74865 3.39345 7.74865 3.87432V15.2448H15.7662L13.2481 12.7355C12.9072 12.3945 12.9072 11.8349 13.2481 11.4939C13.5891 11.1529 14.1487 11.1529 14.4897 11.4939L18.4941 15.4983C18.8351 15.8393 18.8351 16.3989 18.4941 16.7399Z" fill="#E94560"/>
</svg>
