<svg width="24" height="24" viewBox="0 0 24 24" fill="none" xmlns="http://www.w3.org/2000/svg">
<path d="M16.24 11.51L17.81 9.94L14.06 6.19L12.49 7.76L8.35 3.63C7.57 2.85 6.3 2.85 5.52 3.63L3.62 5.53C2.84 6.31 2.84 7.58 3.62 8.36L7.75 12.49L3.15 17.1C3.05 17.2 3 17.32 3 17.46V20.5C3 20.78 3.22 21 3.5 21H6.54C6.67 21 6.8 20.95 6.89 20.85L11.51 16.23L15.64 20.36C16.96 21.68 18.4 20.43 18.47 20.36L20.37 18.46C21.15 17.68 21.15 16.41 20.37 15.63L16.24 11.51V11.51ZM9.18 11.07L5.04 6.94L6.93 5.04L8.2 6.31L7.73 6.8C7.54302 6.98698 7.43798 7.24058 7.43798 7.505C7.43798 7.76943 7.54302 8.02302 7.73 8.21C7.91698 8.39698 8.17057 8.50202 8.435 8.50202C8.69943 8.50202 8.95302 8.39698 9.14 8.21L9.62 7.73L11.07 9.18L9.18 11.07V11.07ZM17.06 18.96L12.93 14.83L14.83 12.93L16.28 14.38L15.8 14.86C15.7074 14.9526 15.634 15.0625 15.5839 15.1835C15.5338 15.3044 15.508 15.4341 15.508 15.565C15.508 15.6959 15.5338 15.8256 15.5839 15.9465C15.634 16.0675 15.7074 16.1774 15.8 16.27C15.8926 16.3626 16.0025 16.436 16.1235 16.4861C16.2444 16.5362 16.3741 16.562 16.505 16.562C16.6359 16.562 16.7656 16.5362 16.8865 16.4861C17.0075 16.436 17.1174 16.3626 17.21 16.27L17.69 15.79L18.96 17.06L17.06 18.96V18.96ZM20.71 7.04C20.8027 6.94749 20.8763 6.8376 20.9264 6.71663C20.9766 6.59565 21.0024 6.46597 21.0024 6.335C21.0024 6.20403 20.9766 6.07435 20.9264 5.95338C20.8763 5.8324 20.8027 5.72251 20.71 5.63L18.37 3.29C17.9 2.82 17.25 3 16.96 3.29L15.13 5.12L18.88 8.87L20.71 7.04V7.04Z" fill="#E94560"/>
</svg>
