<svg width="24" height="24" viewBox="0 0 24 24" fill="none" xmlns="http://www.w3.org/2000/svg">
<path d="M16.5056 6.01127C16.6181 5.94189 16.7644 5.97002 16.8394 6.07877C17.2331 6.64877 18.2812 8.54814 17.8837 12.1669C17.625 14.5163 16.2937 17.9081 15.8419 19.0069C15.8268 19.044 15.8029 19.0768 15.7723 19.1027C15.7417 19.1285 15.7053 19.1465 15.6662 19.1552C15.6271 19.1638 15.5865 19.1629 15.5479 19.1524C15.5092 19.1419 15.4737 19.1222 15.4444 19.095C14.9906 18.6806 13.8825 17.9813 11.865 18.45C11.2256 18.5981 9.23061 20.5969 7.62748 18.7969C6.63748 17.685 7.35936 17.0306 7.36686 15.4313C7.37623 13.3725 5.30436 12.7406 4.62748 12.4031C4.45498 12.3169 4.44186 12.0788 4.60311 11.9738C5.38873 11.4638 6.49123 11.2238 7.87686 10.1213C9.63561 8.72439 9.65061 7.41564 10.0106 6.96189C10.1925 6.73314 11.625 6.09002 11.625 6.09002C11.625 6.09002 12.6262 6.35627 12.675 6.37502L14.4619 7.16439C14.5331 7.19064 14.6137 7.18314 14.6794 7.14189L16.5056 6.01127V6.01127Z" fill="url(#paint0_linear_14_5959)"/>
<path d="M16.9575 13.8169C17.9719 10.6763 17.2369 8.09625 17.2369 8.09625C17.2369 8.09625 14.2594 9.14813 14.2519 9.27C14.2463 9.39188 12.3169 13.9781 12.3169 13.9781C12.3169 13.9781 10.9125 17.7769 9.13126 19.5431C10.4081 19.4044 11.4413 18.5475 11.865 18.45C13.1944 18.1406 14.1263 18.3394 14.7394 18.63C15.075 18.0956 16.245 16.0256 16.9575 13.8169Z" fill="url(#paint1_radial_14_5959)"/>
<path d="M12.7444 8.17875L11.7938 7.7475C11.7938 7.7475 10.2863 11.1881 9.52313 12.375C8.75813 13.5619 7.36688 15.4312 7.36688 15.4312C7.36876 17.0306 6.63563 17.685 7.62751 18.7969C7.69313 18.8719 7.76251 18.9375 7.83001 18.9994C8.46563 18.2362 9.51563 16.7456 10.3031 15.6281C12.4313 12.6075 12.7444 8.17875 12.7444 8.17875Z" fill="url(#paint2_linear_14_5959)"/>
<path d="M19.4138 4.56751C19.2244 4.05188 18.2981 2.57251 18.2981 2.57251L17.2219 3.09001L17.6494 4.93876L15.7238 6.54188C14.9276 6.35785 14.104 6.32477 13.2956 6.44438C12.7444 6.40313 11.1769 6.42188 10.5844 7.86376L9.72562 9.90751L9.03 10.1494C8.83687 10.5525 9.47062 10.9163 9.87375 11.1075C10.2769 11.2988 10.6237 11.1506 10.9537 10.725C11.1506 10.47 11.6081 9.75564 11.9419 9.22501C12.0169 9.79314 12.0694 10.4869 12.0731 11.3306L13.635 12.0825L15.5363 12.1631C16.23 10.5938 16.5881 9.39938 16.77 8.55376C17.3981 7.84501 19.0256 6.00376 19.2356 5.71126C19.4944 5.35126 19.6031 5.08314 19.4138 4.56751V4.56751Z" fill="url(#paint3_linear_14_5959)"/>
<path d="M7.80189 7.24123C7.91251 7.03873 8.25939 6.89998 8.50876 6.82311C8.66064 6.77623 8.82189 6.85498 8.88189 6.99936L9.25126 7.88436C9.29626 7.99311 9.27564 8.11873 9.19689 8.20873L8.85001 8.59873C8.97751 8.77123 9.13689 8.90998 9.32064 9.02061C9.63376 9.20998 9.94689 9.20248 9.97876 9.22873C10.3763 9.54936 10.6725 9.92436 10.44 10.5394C10.2094 11.1506 9.41439 10.9631 9.41439 10.9631C9.41439 10.9631 8.59876 10.3894 8.07376 9.14436C7.90314 8.74498 7.57126 7.66123 7.80189 7.24123Z" fill="url(#paint4_linear_14_5959)"/>
<path d="M9.87749 15.5343C9.87749 15.5343 8.83874 16.5 8.76187 16.9331C8.63437 17.6512 9.24187 18.315 9.55687 18.0581C10.2412 17.5031 10.4269 16.815 10.7662 16.3162C11.1037 15.8175 10.3275 15.0787 9.87749 15.5343V15.5343Z" fill="url(#paint5_linear_14_5959)"/>
<path d="M13.3875 12.5194L13.3406 12.6469C13.2562 12.3356 13.0575 12.0506 12.7875 11.9063C12.7875 11.9063 11.7037 11.5481 11.4319 12.0525C11.4319 12.0525 10.1325 14.1 9.92625 14.67C9.71812 15.24 9.72562 15.705 10.2131 16.0069C10.6069 16.2488 11.1356 16.1325 11.6194 15.5831C11.8369 15.3356 12.3394 14.58 12.7219 13.9931C12.7819 13.8994 12.9262 13.9725 12.8869 14.0775L10.6144 20.0606L11.6287 20.7056C11.6287 20.7056 14.6475 15.8813 15.0919 14.9588C15.5362 14.0363 15.6937 12.6825 15.6937 12.6825L13.3875 12.5194V12.5194Z" fill="url(#paint6_linear_14_5959)"/>
<path opacity="0.4" d="M11.4825 11.9794L11.8575 11.3681C11.91 11.25 12.045 11.2013 12.1538 11.2631C13.395 11.9719 14.055 12.1613 15.4669 12.0769C15.5963 12.0694 15.7031 12.1856 15.6938 12.3263L15.645 12.9844C15.645 12.9844 15.1275 13.2769 13.5469 12.9413C12.4256 12.7031 11.4825 11.9794 11.4825 11.9794V11.9794Z" fill="#212121"/>
<path d="M15.5775 12.9262C13.9875 13.0106 12.9919 12.7237 11.6044 11.9869C11.4956 11.9287 11.4525 11.7956 11.505 11.6831L11.7281 11.2106C11.7844 11.0925 11.9288 11.0437 12.045 11.1056C13.3744 11.8144 14.0813 12.0019 15.5963 11.9194C15.735 11.9119 15.8513 12.03 15.8381 12.1687L15.795 12.7125C15.7856 12.8287 15.6919 12.9206 15.5775 12.9262Z" fill="url(#paint7_linear_14_5959)"/>
<path d="M14.1694 12.5606L13.7363 12.8475C13.65 12.9038 13.5356 12.8813 13.4794 12.795L13.1925 12.3619C13.179 12.3416 13.1696 12.3189 13.165 12.2949C13.1603 12.271 13.1604 12.2464 13.1653 12.2225C13.1702 12.1987 13.1797 12.176 13.1934 12.1558C13.2071 12.1356 13.2246 12.1184 13.245 12.105L13.6781 11.8181C13.6984 11.8046 13.7212 11.7953 13.7451 11.7906C13.769 11.7859 13.7936 11.786 13.8175 11.7909C13.8414 11.7958 13.8641 11.8053 13.8842 11.819C13.9044 11.8327 13.9217 11.8503 13.935 11.8706L14.2219 12.3038C14.2781 12.3882 14.2556 12.5025 14.1694 12.5606Z" fill="#FDD835"/>
<path d="M13.215 8.44126C13.455 8.33626 13.9012 8.19001 14.5444 8.16563C14.5856 8.16376 14.625 8.16376 14.6625 8.16376C15.2419 8.16376 15.5962 8.32126 15.7781 8.43188L14.4769 9.83063L13.215 8.44126V8.44126Z" fill="#E53935"/>
<path d="M14.6644 8.35877C15.0188 8.35877 15.2794 8.42252 15.4613 8.49189L14.4806 9.54564L13.5525 8.52377C13.7906 8.44877 14.1263 8.37564 14.5519 8.36064C14.5913 8.35877 14.6269 8.35877 14.6644 8.35877M14.6644 7.97064C14.6231 7.97064 14.5819 7.97064 14.5388 7.97252C13.4569 8.01189 12.9019 8.38502 12.9019 8.38502L14.4769 10.1194L16.0669 8.40939C16.065 8.40939 15.6563 7.97064 14.6644 7.97064V7.97064Z" fill="#FDD835"/>
<path opacity="0.42" d="M12.9019 8.38503C12.9019 8.38503 13.4569 8.0119 14.5388 7.97253C15.6206 7.93315 16.0669 8.4094 16.0669 8.4094L14.4769 10.1194L12.9019 8.38503V8.38503Z" fill="url(#paint8_linear_14_5959)"/>
<path d="M10.8488 18.3C10.8488 18.3 10.5469 20.1113 9.80251 21.2963C9.43876 21.7781 8.84626 22.1738 8.53876 23.0006C8.39813 23.3813 9.21938 23.7431 9.85876 23.3925C10.2431 23.1806 10.8244 21.8869 10.8244 21.8869C11.3381 20.9531 12.8681 19.4644 12.8681 19.4644C12.5738 18.0975 10.8488 18.3 10.8488 18.3V18.3Z" fill="url(#paint9_linear_14_5959)"/>
<path d="M10.0125 6.95998C10.0125 6.95998 11.0794 5.61373 12.9844 5.9981C14.4 6.2831 14.1019 7.19248 14.1019 7.19248C14.1019 7.19248 13.3875 7.1981 12.7444 7.04998C12.0938 6.89998 11.5144 6.5981 11.1694 6.63373L10.0125 6.95998V6.95998Z" fill="#ED4132"/>
<path d="M14.1019 7.1944C14.1019 7.1944 14.19 6.27378 14.8125 6.05065C15.435 5.82753 16.83 5.62128 16.83 5.62128C16.83 5.62128 16.3931 6.47628 16.0556 6.74628C15.3431 7.3144 14.1019 7.1944 14.1019 7.1944V7.1944Z" fill="#ED4132"/>
<path opacity="0.4" d="M10.7119 7.5994C10.7119 7.5994 11.3231 7.04815 12.2531 7.27128C13.5919 7.5919 14.1019 7.1944 14.1019 7.1944C14.1019 7.1944 15.0863 7.54878 16.0181 7.10065C16.6575 6.79315 16.8319 5.62128 16.8319 5.62128L16.6125 5.86878C16.6125 5.86878 15.7913 6.76315 14.9738 7.00503C14.3756 7.18315 14.1038 7.1944 14.1038 7.1944C14.1038 7.1944 11.8988 6.43878 11.3963 6.64878C10.8938 6.85878 10.7119 7.5994 10.7119 7.5994V7.5994Z" fill="#212121"/>
<path d="M17.3775 4.67248C17.3512 4.49811 17.0194 1.83373 16.3969 1.69498C16.3969 1.69498 16.0669 1.69873 15.7294 1.72873C15.4631 1.73811 15.2869 1.66686 15.2362 1.49998C15.1744 1.37248 15.2381 1.08748 15.345 0.768734C15.4519 0.448109 15.6431 0.408734 15.795 0.404984C16.0894 0.397484 16.5919 0.695609 17.2819 1.29186C18.6094 2.43936 19.335 4.16998 19.335 4.16998C19.3106 4.16998 18.4556 5.33811 17.3775 4.67248V4.67248Z" fill="url(#paint10_linear_14_5959)"/>
<path d="M14.0569 5.86502L13.4531 5.88189L13.47 6.35064C13.47 6.94314 14.1 7.19439 14.1 7.19439C14.1 7.19439 14.6756 6.88502 14.6756 6.34127L14.6588 5.85002L14.0569 5.86502V5.86502ZM15.4631 4.03689L15.075 4.04439L12.9731 4.08752L12.585 4.09502C12.2756 4.10064 12.0263 4.37627 12.0338 4.70814C12.0413 5.04002 12.3 5.30439 12.6094 5.29689L12.9975 5.28939L15.0994 5.24627L15.4875 5.23877C15.7969 5.23314 16.0463 4.95752 16.0388 4.62564C16.0331 4.29564 15.7744 4.03127 15.4631 4.03689Z" fill="#E59600"/>
<path d="M13.9744 1.94064C13.0575 1.95939 12.2288 2.95689 12.2588 4.36689C12.2869 5.76939 13.1756 6.44626 14.0681 6.42751C14.9588 6.40876 15.8194 5.69814 15.7913 4.29376C15.7613 2.88376 14.8913 1.92189 13.9744 1.94064V1.94064Z" fill="#FFCA28"/>
<path d="M13.2017 4.84499C13.3446 4.84214 13.458 4.7198 13.4551 4.57175C13.4521 4.4237 13.3339 4.30599 13.191 4.30885C13.0481 4.31171 12.9347 4.43405 12.9377 4.5821C12.9406 4.73015 13.0589 4.84785 13.2017 4.84499Z" fill="#404040"/>
<path d="M14.9324 4.80941C15.0753 4.80655 15.1887 4.68422 15.1857 4.53616C15.1828 4.38811 15.0645 4.27041 14.9217 4.27327C14.7788 4.27613 14.6654 4.39846 14.6683 4.54651C14.6713 4.69457 14.7895 4.81227 14.9324 4.80941Z" fill="#404040"/>
<path d="M14.2631 5.0325C14.2577 5.03036 14.252 5.0291 14.2462 5.02875L13.875 5.03625C13.8694 5.03625 13.8637 5.03812 13.8581 5.04C13.8244 5.055 13.8075 5.08875 13.8244 5.12625C13.8412 5.16375 13.9181 5.26687 14.0662 5.26312C14.2162 5.25937 14.2875 5.15437 14.3025 5.11687C14.3175 5.07937 14.2969 5.04562 14.2631 5.0325Z" fill="#E59600"/>
<path d="M14.5088 5.51625C14.3438 5.62125 13.7906 5.63625 13.62 5.54062C13.5225 5.48625 13.425 5.57625 13.4681 5.6625C13.5094 5.74687 13.8169 5.94 14.0775 5.9325C14.3381 5.925 14.6306 5.71687 14.6663 5.62875C14.7038 5.5425 14.6044 5.45625 14.5088 5.51625V5.51625Z" fill="#795548"/>
<path d="M13.5675 4.10625C13.5131 4.02563 13.3894 3.90938 13.1569 3.915C12.9244 3.92063 12.8081 4.04625 12.7594 4.13063C12.7369 4.16813 12.7444 4.20938 12.7612 4.23563C12.7762 4.25813 12.8212 4.28063 12.8681 4.25813C12.915 4.23563 13.0087 4.17563 13.1644 4.17C13.3219 4.16625 13.4175 4.2225 13.4662 4.24125C13.515 4.26 13.5581 4.23563 13.5712 4.21125C13.5881 4.18313 13.5919 4.14188 13.5675 4.10625ZM15.3112 4.05375C15.2569 3.97313 15.1331 3.85688 14.9006 3.8625C14.6681 3.87 14.5519 3.99375 14.5031 4.07813C14.4806 4.11563 14.4881 4.15688 14.505 4.18313C14.52 4.20563 14.565 4.22813 14.6119 4.20563C14.6587 4.18313 14.7525 4.12313 14.9081 4.1175C15.0656 4.11375 15.1612 4.17 15.21 4.18875C15.2587 4.2075 15.3019 4.18313 15.315 4.15875C15.324 4.14258 15.3285 4.12424 15.3278 4.10573C15.3271 4.08721 15.3214 4.06924 15.3112 4.05375V4.05375Z" fill="#6D4C41"/>
<path d="M13.9669 1.65189C13.965 1.65189 13.965 1.65189 13.9669 1.65189C13.965 1.65189 13.965 1.65189 13.9669 1.65189C11.5687 1.72689 12.1312 4.45126 12.1312 4.45126C12.1312 4.45126 12.2456 4.73064 12.2981 4.85439C12.3056 4.87126 12.3319 4.86939 12.3356 4.85064C12.3806 4.62001 12.5437 3.80439 12.63 3.55501C12.6806 3.40876 12.8287 3.32064 12.9825 3.34314C13.2187 3.37876 13.5937 3.42189 14.0062 3.41251H14.0137C14.4262 3.40126 14.7994 3.33939 15.0337 3.29064C15.1856 3.25876 15.3394 3.33939 15.3975 3.48376C15.4969 3.72751 15.6994 4.53001 15.7575 4.76064C15.7631 4.77939 15.7894 4.78126 15.795 4.76251L15.9412 4.35376C15.9431 4.35189 16.3631 1.60314 13.9669 1.65189V1.65189Z" fill="#543930"/>
<path d="M15.9431 4.35187C15.9431 4.35187 16.3631 1.60125 13.965 1.65187L13.8563 1.6575C13.785 1.66312 13.7156 1.66875 13.65 1.68H13.6481C13.6425 1.68 13.6388 1.68187 13.635 1.68187C11.625 1.9875 12.1331 4.45125 12.1331 4.45125L12.3 4.8525C12.3075 4.86937 12.3338 4.8675 12.3375 4.84875C12.3825 4.61625 12.5456 3.8025 12.6319 3.555C12.6825 3.40875 12.8306 3.32062 12.9844 3.34312C13.2206 3.37875 13.5956 3.42187 14.0081 3.4125H14.0156C14.4281 3.40125 14.8013 3.33937 15.0356 3.29062C15.1875 3.25875 15.3413 3.33937 15.3994 3.48375C15.4988 3.7275 15.7031 4.53562 15.7613 4.7625C15.7669 4.78125 15.7913 4.78312 15.7988 4.76437C15.8419 4.63875 15.9431 4.35187 15.9431 4.35187V4.35187Z" fill="url(#paint11_radial_14_5959)"/>
<defs>
<linearGradient id="paint0_linear_14_5959" x1="14.9188" y1="9.19464" x2="9.57861" y2="16.3474" gradientUnits="userSpaceOnUse">
<stop stop-color="#A52714"/>
<stop offset="0.529" stop-color="#D23F31"/>
<stop offset="1" stop-color="#ED4132"/>
</linearGradient>
<radialGradient id="paint1_radial_14_5959" cx="0" cy="0" r="1" gradientUnits="userSpaceOnUse" gradientTransform="translate(14.039 11.8824) rotate(20.5788) scale(3.4836 6.75058)">
<stop stop-color="#212121"/>
<stop offset="0.999" stop-color="#212121" stop-opacity="0"/>
</radialGradient>
<linearGradient id="paint2_linear_14_5959" x1="8.32613" y1="10.3316" x2="11.0811" y2="15.0881" gradientUnits="userSpaceOnUse">
<stop stop-color="#212121"/>
<stop offset="0.999" stop-color="#212121" stop-opacity="0"/>
</linearGradient>
<linearGradient id="paint3_linear_14_5959" x1="14.2513" y1="7.76626" x2="14.2191" y2="11.4559" gradientUnits="userSpaceOnUse">
<stop stop-color="#42A5F5"/>
<stop offset="1" stop-color="#1E88E5"/>
</linearGradient>
<linearGradient id="paint4_linear_14_5959" x1="9.44364" y1="9.86736" x2="8.21401" y2="7.19867" gradientUnits="userSpaceOnUse">
<stop stop-color="#A52714"/>
<stop offset="0.529" stop-color="#D23F31"/>
<stop offset="1" stop-color="#DB4437"/>
</linearGradient>
<linearGradient id="paint5_linear_14_5959" x1="10.3367" y1="15.7552" x2="9.39918" y2="17.2083" gradientUnits="userSpaceOnUse">
<stop offset="0.001" stop-color="#851F10"/>
<stop offset="0.841" stop-color="#A52714"/>
</linearGradient>
<linearGradient id="paint6_linear_14_5959" x1="13.0856" y1="13.5137" x2="11.3702" y2="17.3651" gradientUnits="userSpaceOnUse">
<stop stop-color="#42A5F5"/>
<stop offset="1" stop-color="#1E88E5"/>
</linearGradient>
<linearGradient id="paint7_linear_14_5959" x1="11.7564" y1="11.7092" x2="15.8102" y2="12.5951" gradientUnits="userSpaceOnUse">
<stop stop-color="#D32F2F"/>
<stop offset="0.23" stop-color="#F44336"/>
<stop offset="0.742" stop-color="#F44336"/>
<stop offset="1" stop-color="#D32F2F"/>
</linearGradient>
<linearGradient id="paint8_linear_14_5959" x1="14.4838" y1="8.38934" x2="14.4838" y2="10.2372" gradientUnits="userSpaceOnUse">
<stop stop-color="#0D47A1" stop-opacity="0"/>
<stop offset="1" stop-color="#0D47A1"/>
</linearGradient>
<linearGradient id="paint9_linear_14_5959" x1="12.3934" y1="18.8207" x2="8.2095" y2="23.0046" gradientUnits="userSpaceOnUse">
<stop stop-color="#A52714"/>
<stop offset="0.529" stop-color="#D23F31"/>
<stop offset="1" stop-color="#ED4132"/>
</linearGradient>
<linearGradient id="paint10_linear_14_5959" x1="18.444" y1="4.48423" x2="15.8548" y2="0.568109" gradientUnits="userSpaceOnUse">
<stop stop-color="#A52714"/>
<stop offset="0.529" stop-color="#D23F31"/>
<stop offset="1" stop-color="#DB4437"/>
</linearGradient>
<radialGradient id="paint11_radial_14_5959" cx="0" cy="0" r="1" gradientUnits="userSpaceOnUse" gradientTransform="translate(14.0242 3.92338) rotate(-1.4898) scale(2.01026 2.26785)">
<stop offset="0.794" stop-color="#6D4C41" stop-opacity="0"/>
<stop offset="1" stop-color="#6D4C41"/>
</radialGradient>
</defs>
</svg>
