<svg width="24" height="24" viewBox="0 0 24 24" fill="none" xmlns="http://www.w3.org/2000/svg">
<path d="M2.85713 9H10.8571C11.1714 9 11.4286 9.45 11.4286 10C11.4286 10.55 11.1714 11 10.8571 11H2.85713C2.54285 11 2.28571 10.55 2.28571 10C2.28571 9.45 2.54285 9 2.85713 9ZM2.85713 13H7.42856C7.74285 13 7.99999 13.45 7.99999 14C7.99999 14.55 7.74285 15 7.42856 15H2.85713C2.54285 15 2.28571 14.55 2.28571 14C2.28571 13.45 2.54285 13 2.85713 13Z" fill="#E94560"/>
<path d="M13.1428 9H21.1428C21.4571 9 21.7143 9.45 21.7143 10C21.7143 10.55 21.4571 11 21.1428 11H13.1428C12.8286 11 12.5714 10.55 12.5714 10C12.5714 9.45 12.8286 9 13.1428 9ZM13.1428 13H17.7143C18.0286 13 18.2857 13.45 18.2857 14C18.2857 14.55 18.0286 15 17.7143 15H13.1428C12.8286 15 12.5714 14.55 12.5714 14C12.5714 13.45 12.8286 13 13.1428 13Z" fill="#E94560"/>
</svg>
