<svg width="27" height="24" viewBox="0 0 27 24" fill="none" xmlns="http://www.w3.org/2000/svg">
<path d="M2.8075 9H10.6685C10.9774 9 11.23 9.45 11.23 10C11.23 10.55 10.9774 11 10.6685 11H2.8075C2.49868 11 2.246 10.55 2.246 10C2.246 9.45 2.49868 9 2.8075 9ZM2.8075 13H7.29952C7.60835 13 7.86102 13.45 7.86102 14C7.86102 14.55 7.60835 15 7.29952 15H2.8075C2.49868 15 2.246 14.55 2.246 14C2.246 13.45 2.49868 13 2.8075 13Z" fill="#E94560"/>
<path d="M25.2639 15.9988V8.00126C25.2639 7.37289 24.7587 6.85876 24.1413 6.85876H16.2827C15.6652 6.85876 15.16 7.37289 15.16 8.00126V15.9988C15.16 16.6271 15.6652 17.1413 16.2827 17.1413H24.1413C24.7587 17.1413 25.2639 16.6271 25.2639 15.9988ZM18.4719 13.1311L19.6506 14.5764L21.3908 12.2971C21.503 12.1485 21.7276 12.1485 21.8398 12.3028L23.8101 14.9762C23.8414 15.0187 23.8604 15.0691 23.8651 15.122C23.8698 15.1748 23.8599 15.2279 23.8366 15.2753C23.8133 15.3228 23.7774 15.3627 23.7331 15.3906C23.6888 15.4185 23.6377 15.4332 23.5855 15.4332H16.8552C16.6195 15.4332 16.4904 15.159 16.6363 14.9705L18.034 13.1425C18.1407 12.994 18.354 12.9883 18.4719 13.1311V13.1311Z" fill="#E94560"/>
</svg>
