<svg width="20" height="17" viewBox="0 0 20 17" fill="none" xmlns="http://www.w3.org/2000/svg">
<path fill-rule="evenodd" clip-rule="evenodd" d="M18.6221 0.540552C18.6221 0.397189 18.5652 0.259697 18.4638 0.158324C18.3624 0.056951 18.2249 0 18.0816 0H12.0187C11.8754 0 11.7379 0.056951 11.6365 0.158324C11.5351 0.259697 11.4782 0.397189 11.4782 0.540552V1.63625L10.9393 7.3953C10.4436 8.34451 9.52355 9.17642 8.44731 9.86995C7.34729 10.5797 6.13429 11.1121 5.17913 11.4592C4.44777 11.724 3.72667 12.0846 3.09476 12.5987L2.73259 12.8933H0.721197C0.610585 12.8932 0.50261 12.927 0.411844 12.9902C0.321078 13.0535 0.25189 13.143 0.213618 13.2468C0.0584797 13.6684 -0.089091 14.3495 0.065507 14.9668C0.14659 15.2895 0.316864 15.6166 0.631465 15.8587C0.945526 16.1009 1.3504 16.2166 1.82338 16.2166C3.20882 16.2166 3.94613 16.1247 4.39803 15.9809C4.63318 15.9063 4.78994 15.8187 4.91588 15.7301C4.9516 15.7506 4.98624 15.773 5.01967 15.7971C5.0921 15.8479 5.21427 15.9322 5.36184 15.9966C5.71969 16.1522 6.24186 16.2166 7.33486 16.2166C8.39704 16.2166 9.0949 16.0885 9.61977 15.8858C9.78626 15.8214 9.94194 15.7582 10.089 15.6976C10.5998 15.4884 11.0166 15.3182 11.4858 15.2901C11.9353 15.2613 12.3857 15.2486 12.8361 15.2522C13.295 15.2598 13.6231 15.2955 13.775 15.3468C13.9393 15.403 14.0837 15.4739 14.2393 15.5587L14.382 15.6387C14.4988 15.7047 14.6318 15.7798 14.7615 15.8441C15.1799 16.0533 15.675 16.2166 16.4286 16.2166C17.0534 16.2166 17.9264 16.0609 18.661 15.5625C19.4243 15.0452 20 14.1787 20 12.8738C20 11.943 19.7146 11.0008 19.3908 10.2386C18.9611 9.22669 18.6221 8.23802 18.6221 7.24124V0.540552ZM16.4864 8.64884C16.4868 8.50548 16.4302 8.36784 16.329 8.26621C16.2279 8.16459 16.0906 8.10729 15.9472 8.10693C15.8038 8.10658 15.6662 8.16318 15.5646 8.2643C15.463 8.36542 15.4057 8.50277 15.4053 8.64614V8.65262L15.4037 8.68884C15.3862 8.92738 15.3394 9.16286 15.2642 9.38994C15.1215 9.81805 14.8475 10.2991 14.3161 10.6175C14.1931 10.6914 14.1044 10.811 14.0697 10.9502C14.0349 11.0894 14.0568 11.2367 14.1307 11.3597C14.2045 11.4827 14.3242 11.5714 14.4634 11.6061C14.6026 11.6409 14.7499 11.619 14.8729 11.5451C15.6929 11.0527 16.0945 10.3175 16.2896 9.73211C16.3949 9.41446 16.4597 9.08483 16.4826 8.751L16.4859 8.68181V8.66073L16.4864 8.6537V8.64884H15.9459H16.4864Z" fill="white"/>
</svg>
