<svg width="21" height="17" viewBox="0 0 21 17" fill="none" xmlns="http://www.w3.org/2000/svg">
<path d="M13.1667 16.3334H1.16669C0.616687 16.3334 0.166687 15.8834 0.166687 15.3334V1.33337C0.166687 0.783374 0.616687 0.333374 1.16669 0.333374H13.1667C13.7167 0.333374 14.1667 0.783374 14.1667 1.33337V15.3334C14.1667 15.8834 13.7167 16.3334 13.1667 16.3334ZM17.1667 4.33337H19.1667C19.7167 4.33337 20.1667 3.88337 20.1667 3.33337V1.33337C20.1667 0.783374 19.7167 0.333374 19.1667 0.333374H17.1667C16.6167 0.333374 16.1667 0.783374 16.1667 1.33337V3.33337C16.1667 3.88337 16.6167 4.33337 17.1667 4.33337ZM17.1667 16.3334H19.1667C19.7167 16.3334 20.1667 15.8834 20.1667 15.3334V13.3334C20.1667 12.7834 19.7167 12.3334 19.1667 12.3334H17.1667C16.6167 12.3334 16.1667 12.7834 16.1667 13.3334V15.3334C16.1667 15.8834 16.6167 16.3334 17.1667 16.3334ZM17.1667 10.3334H19.1667C19.7167 10.3334 20.1667 9.88337 20.1667 9.33337V7.33337C20.1667 6.78337 19.7167 6.33337 19.1667 6.33337H17.1667C16.6167 6.33337 16.1667 6.78337 16.1667 7.33337V9.33337C16.1667 9.88337 16.6167 10.3334 17.1667 10.3334Z" fill="white"/>
</svg>
