<svg width="32" height="32" viewBox="0 0 32 32" fill="none" xmlns="http://www.w3.org/2000/svg">
<path d="M27.8667 2.66666H4.13333C3.74435 2.66666 3.37129 2.82118 3.09624 3.09623C2.82119 3.37129 2.66666 3.74434 2.66666 4.13332V27.8667C2.66666 28.2556 2.82119 28.6287 3.09624 28.9037C3.37129 29.1788 3.74435 29.3333 4.13333 29.3333H16.9067V19H13.44V15H16.9067V12C16.8349 11.2957 16.918 10.5842 17.1503 9.91537C17.3826 9.24659 17.7584 8.63672 18.2513 8.12854C18.7442 7.62036 19.3424 7.22618 20.0038 6.97364C20.6652 6.7211 21.3738 6.61633 22.08 6.66666C23.1178 6.66027 24.155 6.71369 25.1867 6.82666V10.4267H23.0667C21.3867 10.4267 21.0667 11.2267 21.0667 12.3867V14.96H25.0667L24.5467 18.96H21.0667V29.3333H27.8667C28.0593 29.3333 28.25 29.2954 28.4279 29.2217C28.6059 29.148 28.7676 29.0399 28.9038 28.9037C29.0399 28.7676 29.148 28.6059 29.2217 28.4279C29.2954 28.25 29.3333 28.0593 29.3333 27.8667V4.13332C29.3333 3.94072 29.2954 3.75 29.2217 3.57205C29.148 3.39411 29.0399 3.23243 28.9038 3.09623C28.7676 2.96004 28.6059 2.85201 28.4279 2.7783C28.25 2.70459 28.0593 2.66666 27.8667 2.66666V2.66666Z" fill="#ffffff"/>
</svg>
