<svg width="32" height="32" viewBox="0 0 32 32" fill="none" xmlns="http://www.w3.org/2000/svg">
<path d="M27.2933 2.66666H4.70667C4.45277 2.66313 4.20067 2.70966 3.96475 2.80357C3.72884 2.89749 3.51374 3.03695 3.33173 3.21401C3.14972 3.39106 3.00437 3.60224 2.90399 3.83547C2.8036 4.06871 2.75014 4.31943 2.74667 4.57333V27.4267C2.75014 27.6806 2.8036 27.9313 2.90399 28.1645C3.00437 28.3977 3.14972 28.6089 3.33173 28.786C3.51374 28.963 3.72884 29.1025 3.96475 29.1964C4.20067 29.2903 4.45277 29.3369 4.70667 29.3333H27.2933C27.5472 29.3369 27.7993 29.2903 28.0352 29.1964C28.2712 29.1025 28.4863 28.963 28.6683 28.786C28.8503 28.6089 28.9956 28.3977 29.096 28.1645C29.1964 27.9313 29.2499 27.6806 29.2533 27.4267V4.57333C29.2499 4.31943 29.1964 4.06871 29.096 3.83547C28.9956 3.60224 28.8503 3.39106 28.6683 3.21401C28.4863 3.03695 28.2712 2.89749 28.0352 2.80357C27.7993 2.70966 27.5472 2.66313 27.2933 2.66666V2.66666ZM10.7867 24.9867H6.78667V12.9867H10.7867V24.9867ZM8.78667 11.3067C8.23502 11.3067 7.70596 11.0875 7.31588 10.6974C6.92581 10.3074 6.70667 9.77831 6.70667 9.22666C6.70667 8.67501 6.92581 8.14595 7.31588 7.75588C7.70596 7.3658 8.23502 7.14666 8.78667 7.14666C9.07959 7.11344 9.37623 7.14247 9.65717 7.23184C9.9381 7.32121 10.197 7.46891 10.4169 7.66528C10.6368 7.86164 10.8127 8.10223 10.9332 8.3713C11.0536 8.64037 11.1159 8.93185 11.1159 9.22666C11.1159 9.52147 11.0536 9.81295 10.9332 10.082C10.8127 10.3511 10.6368 10.5917 10.4169 10.788C10.197 10.9844 9.9381 11.1321 9.65717 11.2215C9.37623 11.3109 9.07959 11.3399 8.78667 11.3067V11.3067ZM25.2133 24.9867H21.2133V18.5467C21.2133 16.9333 20.64 15.88 19.1867 15.88C18.7369 15.8833 18.2989 16.0244 17.9318 16.2842C17.5646 16.5441 17.286 16.9102 17.1333 17.3333C17.029 17.6467 16.9838 17.9768 17 18.3067V24.9733H13V12.9733H17V14.6667C17.3634 14.0361 17.8919 13.5167 18.5286 13.1643C19.1653 12.8118 19.8861 12.6398 20.6133 12.6667C23.28 12.6667 25.2133 14.3867 25.2133 18.08V24.9867Z" fill="#ffffff"/>
</svg>
