<svg width="32" height="32" viewBox="0 0 32 32" fill="none" xmlns="http://www.w3.org/2000/svg">
<path d="M16 12.6933C15.346 12.6933 14.7067 12.8873 14.1629 13.2506C13.6191 13.6139 13.1953 14.1304 12.945 14.7346C12.6948 15.3388 12.6293 16.0037 12.7569 16.6451C12.8845 17.2865 13.1994 17.8757 13.6618 18.3382C14.1243 18.8006 14.7135 19.1155 15.3549 19.2431C15.9963 19.3707 16.6612 19.3052 17.2654 19.055C17.8696 18.8047 18.3861 18.3809 18.7494 17.8371C19.1127 17.2933 19.3067 16.654 19.3067 16C19.3067 15.5658 19.2211 15.1358 19.055 14.7346C18.8888 14.3334 18.6452 13.9689 18.3382 13.6618C18.0311 13.3548 17.6666 13.1112 17.2654 12.945C16.8642 12.7789 16.4342 12.6933 16 12.6933V12.6933ZM29.24 9.42666C29.233 8.397 29.0434 7.37675 28.68 6.41332C28.4124 5.70834 27.9983 5.06811 27.4651 4.5349C26.9319 4.00169 26.2917 3.58761 25.5867 3.31999C24.6232 2.95661 23.603 2.767 22.5733 2.75999C20.8533 2.66666 20.3467 2.66666 16 2.66666C11.6533 2.66666 11.1467 2.66666 9.42667 2.75999C8.39701 2.767 7.37676 2.95661 6.41333 3.31999C5.70835 3.58761 5.06813 4.00169 4.53492 4.5349C4.0017 5.06811 3.58762 5.70834 3.32 6.41332C2.95662 7.37675 2.76702 8.397 2.76 9.42666C2.66667 11.1467 2.66667 11.6533 2.66667 16C2.66667 20.3467 2.66667 20.8533 2.76 22.5733C2.77435 23.6066 2.9637 24.63 3.32 25.6C3.58644 26.3018 4.00017 26.9383 4.53333 27.4667C5.06426 28.0031 5.70585 28.4171 6.41333 28.68C7.37676 29.0434 8.39701 29.233 9.42667 29.24C11.1467 29.3333 11.6533 29.3333 16 29.3333C20.3467 29.3333 20.8533 29.3333 22.5733 29.24C23.603 29.233 24.6232 29.0434 25.5867 28.68C26.2942 28.4171 26.9357 28.0031 27.4667 27.4667C27.9998 26.9383 28.4136 26.3018 28.68 25.6C29.043 24.6318 29.2326 23.6073 29.24 22.5733C29.3333 20.8533 29.3333 20.3467 29.3333 16C29.3333 11.6533 29.3333 11.1467 29.24 9.42666V9.42666ZM25.8533 20.0933C25.8105 20.9161 25.6349 21.7266 25.3333 22.4933C25.0745 23.1329 24.6897 23.7139 24.2018 24.2018C23.7139 24.6897 23.1329 25.0745 22.4933 25.3333C21.7194 25.6181 20.9044 25.7757 20.08 25.8H11.92C11.0956 25.7757 10.2807 25.6181 9.50667 25.3333C8.84547 25.0876 8.24837 24.6956 7.76 24.1867C7.27689 23.7083 6.90379 23.1305 6.66667 22.4933C6.38074 21.7201 6.22748 20.9042 6.21333 20.08V11.92C6.22748 11.0958 6.38074 10.2798 6.66667 9.50666C6.91238 8.84546 7.30437 8.24836 7.81333 7.75999C8.29378 7.27949 8.87102 6.90678 9.50667 6.66666C10.2807 6.38186 11.0956 6.22427 11.92 6.19999H20.08C20.9044 6.22427 21.7194 6.38186 22.4933 6.66666C23.1545 6.91237 23.7516 7.30436 24.24 7.81332C24.7231 8.29166 25.0962 8.8695 25.3333 9.50666C25.6181 10.2806 25.7757 11.0956 25.8 11.92V16C25.8 18.7467 25.8933 19.0267 25.8533 20.08V20.0933ZM23.72 10.1733C23.5613 9.74264 23.311 9.35151 22.9864 9.02694C22.6618 8.70237 22.2707 8.45207 21.84 8.29332C21.2486 8.08834 20.6258 7.98904 20 7.99999H12C11.371 8.00614 10.7481 8.1235 10.16 8.34666C9.73591 8.4982 9.34893 8.73827 9.02478 9.05092C8.70063 9.36358 8.44675 9.74164 8.28 10.16C8.08637 10.7538 7.99177 11.3755 8 12V20C8.01322 20.6283 8.13036 21.25 8.34667 21.84C8.50542 22.2707 8.75571 22.6618 9.08029 22.9864C9.40486 23.3109 9.79598 23.5612 10.2267 23.72C10.7956 23.9292 11.3942 24.0462 12 24.0667H20C20.629 24.0605 21.2519 23.9431 21.84 23.72C22.2707 23.5612 22.6618 23.3109 22.9864 22.9864C23.311 22.6618 23.5613 22.2707 23.72 21.84C23.9432 21.2519 24.0605 20.629 24.0667 20V12C24.0671 11.3704 23.9495 10.7463 23.72 10.16V10.1733ZM16 21.0933C15.3318 21.0933 14.6701 20.9615 14.0529 20.7054C13.4357 20.4492 12.8751 20.0738 12.4032 19.6007C11.9313 19.1276 11.5574 18.566 11.3029 17.9481C11.0484 17.3302 10.9182 16.6682 10.92 16C10.92 14.9921 11.2191 14.0068 11.7793 13.1689C12.3396 12.331 13.1358 11.6782 14.0673 11.2931C14.9988 10.908 16.0235 10.8079 17.0119 11.0055C18.0003 11.2031 18.9078 11.6895 19.6196 12.4032C20.3314 13.1168 20.8154 14.0256 21.0104 15.0145C21.2054 16.0034 21.1027 17.0279 20.7151 17.9584C20.3276 18.8888 19.6727 19.6834 18.8333 20.2414C17.994 20.7995 17.0079 21.096 16 21.0933V21.0933ZM21.3333 11.9067C21.0386 11.8755 20.7658 11.7363 20.5676 11.516C20.3693 11.2956 20.2597 11.0097 20.2597 10.7133C20.2597 10.4169 20.3693 10.131 20.5676 9.9107C20.7658 9.69036 21.0386 9.55119 21.3333 9.51999C21.6281 9.55119 21.9008 9.69036 22.0991 9.9107C22.2973 10.131 22.407 10.4169 22.407 10.7133C22.407 11.0097 22.2973 11.2956 22.0991 11.516C21.9008 11.7363 21.6281 11.8755 21.3333 11.9067Z" fill="#ffffff"/>
</svg>
