<svg width="32" height="32" viewBox="0 0 32 32" fill="none" xmlns="http://www.w3.org/2000/svg">
<path d="M29.3333 8.73332C29.3184 8.15809 29.2738 7.584 29.2 7.01332C29.1004 6.51349 28.9345 6.0292 28.7067 5.57332C28.4684 5.0788 28.1483 4.62803 27.76 4.23999C27.3681 3.85626 26.9181 3.53678 26.4267 3.29332C25.9702 3.06992 25.4859 2.90849 24.9867 2.81332C24.4214 2.72866 23.8514 2.67967 23.28 2.66666H8.73333C8.1581 2.68164 7.58401 2.72614 7.01333 2.79999C6.5135 2.89955 6.02921 3.06546 5.57333 3.29332C5.07881 3.53164 4.62803 3.85169 4.24 4.23999C3.85627 4.63187 3.53679 5.08185 3.29333 5.57332C3.06993 6.02981 2.9085 6.51409 2.81333 7.01332C2.72867 7.57857 2.67968 8.14859 2.66667 8.71999V23.2667C2.68165 23.8419 2.72615 24.416 2.8 24.9867C2.89956 25.4865 3.06547 25.9708 3.29333 26.4267C3.53165 26.9212 3.8517 27.372 4.24 27.76C4.63188 28.1437 5.08186 28.4632 5.57333 28.7067C6.02982 28.9301 6.5141 29.0915 7.01333 29.1867C7.57858 29.2713 8.1486 29.3203 8.72 29.3333H23.2667C23.8419 29.3183 24.416 29.2738 24.9867 29.2C25.4865 29.1004 25.9708 28.9345 26.4267 28.7067C26.9212 28.4683 27.372 28.1483 27.76 27.76C28.1437 27.3681 28.4632 26.9181 28.7067 26.4267C28.9301 25.9702 29.0915 25.4859 29.1867 24.9867C29.2713 24.4214 29.3203 23.8514 29.3333 23.28V8.73332ZM16.3067 25.3333C14.7054 25.3254 13.1322 24.9126 11.7333 24.1333L6.66667 25.4667L8 20.5067C7.14015 19.0619 6.67998 17.4145 6.66667 15.7333C6.67198 13.8439 7.23627 11.9983 8.28848 10.4289C9.34069 8.85959 10.8338 7.6367 12.5796 6.91428C14.3255 6.19186 16.2461 6.00222 18.0996 6.36924C19.953 6.73626 21.6564 7.64354 22.9952 8.97679C24.3341 10.3101 25.2484 12.0097 25.6231 13.8616C25.9979 15.7135 25.8162 17.6349 25.1011 19.3837C24.3859 21.1326 23.1692 22.6307 21.6043 23.6895C20.0393 24.7482 18.1961 25.3202 16.3067 25.3333V25.3333ZM16.3067 7.82666C14.8931 7.84283 13.509 8.2333 12.2954 8.95831C11.0818 9.68331 10.082 10.717 9.39773 11.954C8.71349 13.1911 8.36927 14.5874 8.40011 16.0007C8.43096 17.414 8.83577 18.794 9.57333 20L9.76 20.3067L8.96 23.2267L12 22.4L12.2933 22.5733C13.5061 23.2877 14.8859 23.6694 16.2933 23.68C18.4151 23.68 20.4499 22.8371 21.9502 21.3368C23.4505 19.8366 24.2933 17.8017 24.2933 15.68C24.2933 13.5583 23.4505 11.5234 21.9502 10.0231C20.4499 8.52284 18.4151 7.67999 16.2933 7.67999L16.3067 7.82666ZM20.9733 19.1867C20.7987 19.4779 20.5649 19.7293 20.287 19.9246C20.009 20.1198 19.6933 20.2545 19.36 20.32C18.8621 20.411 18.3494 20.379 17.8667 20.2267C17.4125 20.0847 16.9672 19.9155 16.5333 19.72C14.885 18.8929 13.4793 17.6525 12.4533 16.12C11.8958 15.41 11.5576 14.5527 11.48 13.6533C11.4721 13.2797 11.5427 12.9086 11.6874 12.5641C11.8322 12.2195 12.0477 11.9092 12.32 11.6533C12.4002 11.5624 12.4986 11.4893 12.6089 11.4387C12.7191 11.3882 12.8387 11.3614 12.96 11.36H13.3333C13.48 11.36 13.68 11.36 13.8667 11.7733C14.0533 12.1867 14.5467 13.4267 14.6133 13.5467C14.6461 13.6106 14.6632 13.6815 14.6632 13.7533C14.6632 13.8252 14.6461 13.896 14.6133 13.96C14.5544 14.1049 14.4734 14.2398 14.3733 14.36C14.2533 14.5067 14.12 14.68 14.0133 14.7867C13.9067 14.8933 13.7733 15.0267 13.9067 15.2667C14.2694 15.8789 14.7185 16.4357 15.24 16.92C15.8079 17.4218 16.4572 17.8231 17.16 18.1067C17.4 18.2267 17.5467 18.2133 17.68 18.1067C17.8133 18 18.28 17.4133 18.44 17.1733C18.6 16.9333 18.76 16.9733 18.9733 17.0533C19.1867 17.1333 20.3733 17.7067 20.6133 17.8267C20.8533 17.9467 21 18 21.0667 18.1067C21.1245 18.4556 21.0924 18.8136 20.9733 19.1467V19.1867Z" fill="#ffffff"/>
</svg>
